<?xml version="1.0" encoding="utf-8"?>
<!-- Generator: Adobe Illustrator 23.0.3, SVG Export Plug-In . SVG Version: 6.00 Build 0)  -->
<svg version="1.1" id="cb7db7bb-371f-430c-ab8e-9f8547f8cfe6"
	 xmlns="http://www.w3.org/2000/svg" xmlns:xlink="http://www.w3.org/1999/xlink" x="0px" y="0px" viewBox="0 0 1130 651.7"
	 style="enable-background:new 0 0 1130 651.7;" xml:space="preserve">
<style type="text/css">
	.st0{opacity:0.1;fill:#0596DE;enable-background:new    ;}
	.st1{fill:url(#SVGID_1_);}
	.st2{fill:#FFFFFF;}
	.st3{fill:#4C4C78;}
	.st4{fill:#C8CAD7;}
	.st5{fill:#EDEDF4;}
	.st6{opacity:0.5;fill:#0596DE;enable-background:new    ;}
	.st7{opacity:0.5;fill:#DCE0ED;enable-background:new    ;}
	.st8{fill:#0596DE;}
	.st9{fill:url(#SVGID_2_);}
	.st10{fill:#130526;}
	.st11{fill:#3F3D56;}
	.st12{opacity:0.1;enable-background:new    ;}
	.st13{fill:#FBBEBE;}
	.st14{fill:#F86D70;}
	.st15{opacity:5.000000e-02;enable-background:new    ;}
	.st16{fill:url(#SVGID_3_);}
	.st17{opacity:0.1;}
	.st18{opacity:0.5;}
	.st19{fill:#DCE0ED;}
</style>
<path class="st0" d="M1126,417.4c0.2-58.6-27.7-113.6-74.6-147.4c0.6-6.2,1-12.5,1-18.8c0-99.1-77.8-179.5-173.8-179.5
	c-29.6,0-58.6,7.7-84.4,22.5c-67.9-45.5-156.6-73.1-253.7-73.1c-157.8,0-293.7,72.9-353.9,177.6c-3.3-0.2-6.7-0.3-10.1-0.3
	c-96,0-173.8,80.4-173.8,179.5c-0.1,35,9.9,69.3,28.6,98.7l0,0c0,89.2,82.7,161.5,184.6,161.5h739.5c80.1,0,145-56.8,145-126.8l0,0
	C1117.2,483,1126.1,450.5,1126,417.4z"/>
<title>dashboard</title>
<linearGradient id="SVGID_1_" gradientUnits="userSpaceOnUse" x1="196.76" y1="318.7567" x2="915" y2="318.7567">
	<stop  offset="0" style="stop-color:#28084C"/>
	<stop  offset="4.162306e-02" style="stop-color:#28084C"/>
	<stop  offset="1" style="stop-color:#28084C"/>
</linearGradient>
<path class="st1" d="M915,108.4v420.7c0,10.8-8.7,19.5-19.5,19.5c0,0,0,0,0,0H216.3c-10.8,0-19.5-8.7-19.5-19.5c0,0,0,0,0,0V108.4
	c0-10.8,8.7-19.5,19.5-19.5h679.2C906.2,88.9,915,97.6,915,108.4C915,108.4,915,108.4,915,108.4z"/>
<path class="st2" d="M348.5,98.7v449.9H216.3c-10.8,0-19.5-8.7-19.5-19.5c0,0,0,0,0,0V108.4l0.7-2.6l1.9-7.1H348.5z"/>
<polygon class="st3" points="365.5,105.8 365.5,146.3 196.8,146.3 196.8,108.4 197.5,105.8 "/>
<path class="st4" d="M915,108.4H196.8c0-10.8,8.7-19.5,19.5-19.5c0,0,0,0,0,0h679.2C906.2,88.9,915,97.6,915,108.4
	C915,108.4,915,108.4,915,108.4z"/>
<circle class="st5" cx="216.3" cy="98.7" r="4.9"/>
<circle class="st5" cx="230.9" cy="98.7" r="4.9"/>
<circle class="st5" cx="245.5" cy="98.7" r="4.9"/>
<rect x="222" y="169.1" class="st6" width="101.3" height="9.3"/>
<rect x="222" y="201.3" class="st6" width="101.3" height="9.3"/>
<rect x="222" y="233.4" class="st6" width="101.3" height="9.3"/>
<rect x="222" y="265.6" class="st6" width="101.3" height="9.3"/>
<rect x="222" y="297.8" class="st6" width="101.3" height="9.3"/>
<rect x="222" y="329.9" class="st6" width="101.3" height="9.3"/>
<rect x="222" y="362.1" class="st6" width="101.3" height="9.3"/>
<rect x="431.5" y="157.9" class="st7" width="449" height="1.5"/>
<rect x="431.5" y="192.7" class="st7" width="449" height="1.5"/>
<rect x="431.5" y="227.6" class="st7" width="449" height="1.5"/>
<rect x="431.5" y="262.4" class="st7" width="449" height="1.5"/>
<rect x="431.5" y="297.2" class="st7" width="449" height="1.5"/>
<polygon class="st6" points="880.5,298.7 430.9,298.7 430.9,230.2 472.2,250.6 514.8,256.3 552.3,245 597.5,210 620.2,196.9 
	636.8,193.7 652.7,194.5 678.8,207.5 714.3,230.1 742.2,233.7 764.3,226.1 811.2,187.7 835.1,179.1 860.1,183 880.5,194.8 "/>
<path class="st8" d="M509.3,256.4c-40.5,0-77.9-24.8-78.4-25.1l1.1-1.7c0.6,0.4,58.2,38.5,107.1,19.4c17.9-6.9,30.5-17.8,42.9-28.2
	c12.8-10.9,25-21.3,41.5-25.7c19-5.1,39.7-0.5,55.4,12.4c13.4,11,40.2,28.8,68.5,23.5c14.4-2.7,26.6-13.2,39.5-24.4
	c24.6-21.4,50.2-43.5,94.3-11.8l-1.2,1.6c-42.8-30.8-67.8-9.2-91.8,11.7c-13.1,11.3-25.4,22-40.4,24.9
	c-29.1,5.5-56.4-12.6-70.2-23.9c-15.2-12.5-35.3-17-53.6-12c-16.1,4.4-28,14.5-40.7,25.3c-12.4,10.6-25.2,21.5-43.4,28.6
	C530.1,254.6,519.7,256.4,509.3,256.4z"/>
<g>
	
		<linearGradient id="SVGID_2_" gradientUnits="userSpaceOnUse" x1="255.2825" y1="44.1325" x2="255.2825" y2="466.3947" gradientTransform="matrix(-1 0 0 -1 586.0298 690.2934)">
		<stop  offset="0" style="stop-color:#808080;stop-opacity:0.25"/>
		<stop  offset="0.54" style="stop-color:#808080;stop-opacity:0.12"/>
		<stop  offset="1" style="stop-color:#808080;stop-opacity:0.1"/>
	</linearGradient>
	<path class="st9" d="M256.7,333.3v12.9c0,0,4.1,40.8,17.2,45.3c1.3,0.4,2.6,0.8,4,1c-0.5,3.7-0.9,7.2-1.3,9.9
		c-1.5,11.6-5.6,29.9-5.6,29.9l0.8,0.2l-0.1,0.7c-1.4,10.8,0.2,28.3,0.2,28.3s2,13,4.9,26.3c1.7,8,1.7,16.2,0,24.2
		c1,9.3,0,18.8-2.7,27.7c-0.2,0.6-0.4,1.3-0.6,1.9l0,0c-4.7,16.5,1.7,41.5,4.7,52.9c2.1,8.4,3.5,17,4.2,25.6c-0.6,0.9-0.8,2-0.6,3.1
		c1.3,5.5-3.4,13.2-3.4,13.2c-0.4,0.5-0.7,1-0.9,1.5c-0.8,2-0.5,4.2,0.9,5.9c3,3.9,20.9,2.2,23.9,1c1.9-0.7,1.7-4.1,1.2-7.7
		c-0.4-2.2-0.8-4.5-1-6.2c-0.3-2.9,0.5-7.9,1-10.7l0.2,0l-0.1-0.5c0.2-1,0.3-1.7,0.3-1.7c-0.2,0.2-0.4,0.4-0.6,0.5l-4.8-22.8
		c3.6-14.5,0-53.1,0-53.1s8.2-14.9,9-37.7c0.7-22.4,6.4-29.7,6.5-29.9l0,0c11.6,5.9,26.4,69.5,26.4,69.5
		c-1.2,15.4,0.2,39.1,5.1,51.9c2.9,8.1,4.2,16.8,3.6,25.4c0.4,0.4,0.9,0.7,1.5,0.9c-0.3,2.8-0.9,7-2.2,8.6l0,0
		c-0.5,0.7-0.7,1.5-0.6,2.3c0.3,2.5,2.2,4.4,4.7,4.7c6.6,1,22.4,3.4,26.4,5.3c5.1,2.3,25.1,0.7,26.1-1.7c0.3-1,0.2-2-0.3-2.8
		c-0.7-1.5-1.8-2.6-3.2-3.4c-0.5-0.3-1-0.5-1.5-0.6c-3.8-1.2-10.9-3.9-12.9-6.6c0,0-8.9-7.6-11.5-11.8c-1-1.7-2.7-2.7-4.7-2.8h-0.2
		c-0.5-12-2.8-67.3-4.5-69.6c-1.9-2.6,0-17.5,0-17.5l-3.1-24.2c0,0,0.5-41-4-48.1c-4-6.2-4.9-16.9-5.1-19.8c0-0.5,0-0.7,0-0.7
		c1.3-0.6,1.6-1.5,0-2.8c-5.9-4.7-7.6-43.5-7.7-48v-0.4c0.4,0.1,4.4,1,14.7-1.2c10.9-2.4,12.1-26.3,6.8-36.8
		c-3.3-6.5-3.7-11.6-3.6-14.4c0.2-3.2,0-6.5-0.8-9.6c-4.7-19-17.7-17.5-17.7-17.5l-21.6-8.7c-2.2-2.1-3.4-5-3.3-8c0-0.2,0-0.5,0-0.7
		c10.1-3.2,16.9-12.5,17-23c0-5.3-1.8-10.4-5-14.6l-0.1-0.1c0-0.1,0.1-0.2,0.1-0.3c0.2-0.8,0.1-1.6,0.4-2.3c0.6-1.9,2.6-2.8,4-4.2
		c1.4-1.5,2.1-3.4,2.1-5.5l0,0c0-0.1,0-0.2,0-0.3c0-1.9-0.5-3.7-1.4-5.4c-1.6-2.8-4.6-5.1-7.8-4.5c-2,0.3-3.7,1.7-5.6,1.8
		s-3.7-0.9-5.4-1.7c-4.2-1.9-8.9-2.3-13.4-1.2c-1.4,0.3-2.6,0.9-3.7,1.8c-0.7,0.9-1.4,1.8-2,2.7c-2.3,2.8-6.3,3.4-9.9,4
		s-7.7,2-8.9,5.4c-0.3,0.8-0.4,1.6-0.3,2.4c0.1,1.6,0.4,3.2,0.8,4.8c0,0,0,0.1,0,0.1c0,0,0-0.1,0-0.1c0.1,0.4,0.1,0.8-0.1,1.2
		c-0.5,0.9-1.9,0.5-3,0.8c-2,0.4-2.6,3-2.6,5c-0.1,2.3-0.2,4.7-0.2,7c0,0.3,0,0.5,0,0.8c0,0.7,0.1,1.3,0.2,2
		c0.4,1.2,1.1,2.4,2.1,3.3c2.7,3.1,5.3,6.3,8,9.4c3.1,3.7,6.4,7.9,6.7,12.5v-0.1c0,0.3,0,0.7,0,1c-0.9,1.9-2.2,3.6-3.8,4.8l-0.3,0.2
		c0,0-5.8,2.2-21,10.9C252.4,313.5,256.7,333.3,256.7,333.3z M365.7,619.3L365.7,619.3l-0.6,0.3L365.7,619.3z"/>
	<path class="st10" d="M278.2,512.4c1.7-7.9,1.7-16.2,0-24.1c-2.8-13.2-4.8-26.2-4.8-26.2s-1.6-17.5-0.2-28.2
		c0.4-3.5,1.2-6.3,2.4-7.5c5-5,71.1,0,71.1,0l6.8,8.2c0,0,0,0.2,0,0.7c0.2,2.8,1.1,13.6,5,19.7c4.5,7.1,4,48,4,48l3.1,24.1
		c0,0-1.9,14.9,0,17.5s4.5,71.6,4.5,71.6s-8.1,5.8-14.8,6.9c-2.5,0.4-4.8,0.2-6.4-1.2c0.5-8.6-0.7-17.2-3.5-25.3
		c-4.8-12.8-6.2-36.4-5-51.8c0,0-14.4-63.3-25.8-69.3l0,0c-0.2,0.2-5.7,7.5-6.4,29.8c-0.7,22.7-8.7,37.6-8.7,37.6s3.5,38.5,0,53
		l5,24.3c-6.8,1.5-13.9,1.6-20.8,0.5c-0.6-8.8-2-17.5-4-26c-3-11.8-9.7-38.3-4-54.6C278.2,531.1,279.1,521.7,278.2,512.4z"/>
	<path class="st11" d="M278.8,637.9c0.2-0.5,0.5-1,0.9-1.5c0,0,4.6-7.7,3.3-13.1c-0.9-3.8,4.2-6.7,7.3-8c1.9-0.9,4.1-1,6.1-0.4
		c1.6,0.4,2.9,1.6,3.4,3.2c0.9,4.1,4.8,0,4.8,0s-1.9,8.6-1.4,12.9c0.2,1.7,0.6,3.9,0.9,6.2c0.5,3.5,0.6,6.9-1.2,7.6
		c-3,1.2-20.3,2.9-23.3-1C278.3,642.1,278,639.8,278.8,637.9z"/>
	<path class="st12" d="M278.8,637.9c3.8,0.3,7.5,0.4,11.3,0.2c1.2,0,2.5,0,3.7,0.1c5.3,0.5,8.5-0.2,10.3-1.1
		c0.5,3.5,0.6,6.9-1.2,7.6c-3,1.2-20.3,2.9-23.3-1C278.3,642.1,278,639.8,278.8,637.9z"/>
	<path class="st12" d="M314.5,475.6l4.1-4.5c0,0,20.7,26.6,25.2,65.2c3.9,33.9,10,76.9,11.4,86.9c-2.5,0.4-4.8,0.2-6.4-1.2
		c0.5-8.6-0.7-17.2-3.5-25.3c-4.8-12.8-6.2-36.4-5-51.8C340.3,544.8,325.9,481.5,314.5,475.6z"/>
	<path class="st13" d="M290,294.7c2.5-1.9,5.6-6,5.4-14.3c-0.2-4.2-0.9-8.3-2.2-12.4l30.5,9.6c-1.5,3.2-2.3,6.7-2.4,10.2
		c0,3.1,0.9,6.3,3.9,8.5c1.5,1.1,3.2,1.8,5,2.2c14.9,3.5-8.8,28.4-8.8,28.4l-17.4,7.5l-14.1-23.8l-2.9-14.2
		C287.9,296.1,289,295.5,290,294.7z"/>
	<path class="st12" d="M323.6,277.6c-1.5,3.2-2.3,6.7-2.4,10.2c-9.3,3-19.6,0.1-25.9-7.4c-0.2-4.2-0.9-8.3-2.2-12.4L323.6,277.6z"/>
	<path class="st13" d="M289.7,264c0-13.3,10.8-24,24.1-24h0c13.3,0,24.1,10.8,24.1,24.1c0,13.3-10.8,24.1-24.1,24.1
		c-13.3,0-24.1-10.8-24.1-24.1C289.7,264.1,289.7,264.1,289.7,264z"/>
	<path class="st12" d="M290,294.7c2.1,3.4,15.3,24,22.5,25.1c0,0,3,1.2,4.3-0.7c0,0,11.1-15.4,8.4-22.8c1.5,1.1,3.2,1.8,5,2.2
		c14.9,3.5-8.8,28.4-8.8,28.4l-17.4,7.5l-14.1-23.8l-2.9-14.2C287.9,296.1,289,295.5,290,294.7z"/>
	<path class="st12" d="M275.6,426.4c5-5,71.1,0,71.1,0l6.8,8.2c0,0,0,0.2,0,0.7c-3.7,1.6-15.7,1-15.7,1s-18.9,0.9-28.5,2.4
		c-8.8,1.3-32-3.8-36.2-4.8C273.6,430.4,274.3,427.6,275.6,426.4z"/>
	<path class="st14" d="M312.4,320.5c-7.8-1.2-22.8-25.5-22.8-25.5s-5.6,2.2-20.5,10.9s-10.6,28.5-10.6,28.5l24.1,32.7
		c0,0-3.3,24.7-4.7,36.2s-5.4,29.8-5.4,29.8s27.2,6.4,36.9,5s28.5-2.4,28.5-2.4s21.8,1.2,15.7-3.8s-7.6-48.2-7.6-48.2
		s3.8,1.2,14.4-1.2s11.8-26.2,6.6-36.6c-3.2-6.5-3.6-11.5-3.5-14.4c0.2-3.2-0.1-6.5-0.8-9.6c-4.6-18.9-17.2-17.4-17.2-17.4
		l-21.1-8.6c4.7,6.7-7.8,24-7.8,24C315.4,321.7,312.4,320.5,312.4,320.5z"/>
	<path class="st12" d="M342.4,347.5c-0.5,3.3,5.9,10.2,5.9,10.2h-11.8c0,0,5.2-17,6.6-20.1s1.2-10.9,1.2-10.9
		S342.9,344.1,342.4,347.5z"/>
	<path class="st13" d="M309.3,375.6c7.1-1.2,22.2-13.2,22.2-13.2l12.7-10l2.8,3.7c0,0-6.7,12.2-9.1,17.6s-28.5,11.8-28.5,11.8
		S302.2,376.8,309.3,375.6z"/>
	<path class="st15" d="M309.3,375.6c7.1-1.2,22.2-13.2,22.2-13.2l12.7-10l2.8,3.7c0,0-6.7,12.2-9.1,17.6s-28.5,11.8-28.5,11.8
		S302.2,376.8,309.3,375.6z"/>
	<path class="st13" d="M287.6,359.8c4.1,1.5,7.8-3.3,12-4.3c8.6-2.2,12.1,0.9,15.1,1.9s10.3,0.4,12,0.3h0.4l6.9,6.2l-7.3,16.5
		l-1.1-0.6l-4.3-2.4c-9.8-5.5-20.9-8.3-32.1-8.3h-2.3v-14.2L287.6,359.8z"/>
	<path class="st12" d="M278.4,312.9c10.6,0.5,7.6,22.7,7.6,22.7c4.7,7.1,4.4,30.9,4.4,30.9s21.6,5.7,24.3,6.6s-3.1,16.5-3.1,16.5
		s-22.8,7.1-35.5,2.6s-16.8-45.2-16.8-45.2v-12.9l4.7-5.3C264,329,267.7,312.5,278.4,312.9z"/>
	<path class="st14" d="M277.7,312.9c10.6,0.5,7.6,22.7,7.6,22.7c4.7,7.1,4.4,30.9,4.4,30.9s21.6,5.7,24.3,6.6s-3.1,16.5-3.1,16.5
		s-22.8,7.1-35.5,2.6s-16.8-45.2-16.8-45.2v-12.9l4.7-5.3C263.3,329,267,312.5,277.7,312.9z"/>
	<path class="st12" d="M297.1,281.6c-0.9-0.9-1.8-1.9-2.6-2.9c-8-10.6-5.9-25.7,4.7-33.8c10.6-8,25.7-5.9,33.8,4.7c0,0,0,0.1,0,0.1
		c-0.5,1.6-1.8,2.7-3.4,2.9c-1.8,0.2-3.6-0.5-4.9-1.7c-1.3-1.2-2.9-1.8-4.6-1.9c-2.6-0.1-6.5,0.8-8.1,2.9c-1.3,1.7-1.4,4-1.4,6.2
		c0,2,0,3.9,0,5.9c0.1,1.8-0.2,3.5-0.8,5.1c-0.8,1.6-2.6,2.7-4.3,2.2c-2-0.6-2.9-3.3-4.9-3.7c-1.6-0.2-3.1,0.7-3.7,2.2
		c-0.6,1.5-0.8,3-0.5,4.6C296.4,276.8,296.7,279.2,297.1,281.6z"/>
	
		<linearGradient id="SVGID_3_" gradientUnits="userSpaceOnUse" x1="211.8361" y1="258.0713" x2="273.9183" y2="258.0713" gradientTransform="matrix(-1 0 0 1 551.0298 0)">
		<stop  offset="0" style="stop-color:#28084C"/>
		<stop  offset="4.162306e-02" style="stop-color:#28084C"/>
		<stop  offset="1" style="stop-color:#28084C"/>
	</linearGradient>
	<path class="st16" d="M324.6,250.1c-1.3-1.2-2.9-1.8-4.6-1.9c-2.6-0.1-6.5,0.8-8.1,2.9c-1.3,1.7-1.4,4-1.4,6.2v5.9
		c0.1,1.8-0.2,3.5-0.8,5.1c-0.8,1.6-2.6,2.8-4.3,2.2c-2-0.6-2.9-3.3-4.9-3.7c-1.6-0.2-3.1,0.7-3.8,2.2c-0.6,1.5-0.8,3.1-0.5,4.6
		c0.2,3.1,0.6,6.2,1.2,9.2c0.4,1.8,0.8,3.6,0.3,5.3s-2.5,3.1-4.1,2.4c0.7-5.4-3-10.2-6.4-14.4l-7.8-9.4c-0.9-0.9-1.6-2-2-3.2
		c-0.2-0.8-0.3-1.7-0.2-2.6c0-2.3,0.1-4.7,0.2-7c0.1-2,0.6-4.6,2.6-5c1.1-0.2,2.5,0.2,3-0.7c0.2-0.5,0.2-1,0.1-1.5
		c-0.4-2.3-1.2-4.8-0.4-7c1.2-3.4,5.1-4.8,8.6-5.4s7.5-1.2,9.7-4c0.6-0.9,1.2-1.8,1.9-2.7c1-0.9,2.3-1.5,3.6-1.8
		c4.4-1.1,9-0.7,13.1,1.2c1.7,0.8,3.3,1.8,5.3,1.7s3.6-1.5,5.5-1.8c3.1-0.5,6,1.8,7.6,4.5c1.9,3.4,2.1,8-0.6,10.9
		c-1.3,1.4-3.3,2.4-3.9,4.2c-0.2,0.8-0.2,1.6-0.4,2.3c-0.5,1.5-1.8,2.7-3.4,2.9C327.7,252.1,325.9,251.4,324.6,250.1z"/>
	<path class="st12" d="M316.7,356.5l7.4-30.4C310.9,356.4,316.7,356.5,316.7,356.5z"/>
	<path class="st12" d="M302.9,353.4l1.8-0.1c3.8-16.4-5.9-32.3-5.9-32.3C306.1,345.8,302.9,353.4,302.9,353.4z"/>
	<path class="st12" d="M279.9,416c0.9-9.1,12.8-5.2,12.8-5.2C282.2,409.7,279.9,416,279.9,416z"/>
	<path class="st12" d="M347.4,358.3l-1.4,26c-7.1,0.5-14.1-0.5-20.8-2.8c4.2-6.6,1.9-23.2,1.9-23.2H347.4z"/>
	<path class="st12" d="M326.7,357.6L326.7,357.6h0.4l6.9,6.2l-7.3,16.5l-1.1-0.6C328.7,372.6,326.8,358.4,326.7,357.6z"/>
	<path class="st14" d="M354.2,357.6l-8.3,26c-7.1,0.5-14.1-0.5-20.8-2.8c4.2-6.6,1.9-23.2,1.9-23.2H354.2z"/>
	<path class="st11" d="M348.1,631.4L348.1,631.4c1.9-2.4,2.4-11.1,2.4-11.1c3.1,5.7,14.4-0.8,14.4-0.8c1-4.5,3.2-5.6,5.3-5.5
		c1.9,0.1,3.6,1.2,4.5,2.8c2.5,4.1,11.2,11.7,11.2,11.7c1.9,2.7,8.9,5.4,12.6,6.6c2,0.7,3.7,2.1,4.6,4c0.5,0.9,0.6,1.9,0.3,2.8
		c-1,2.4-20.5,4-25.5,1.7c-3.9-1.9-19.4-4.3-25.8-5.3c-2.4-0.3-4.3-2.3-4.6-4.7C347.4,632.9,347.6,632,348.1,631.4z"/>
	<path class="st12" d="M348.1,631.3L348.1,631.3c3.6,1.5,11,3.8,25.9,6.2c15.6,2.4,22.7,0.4,25.9-1.8c1.4,0.8,2.5,2,3.2,3.4
		c0.5,0.9,0.6,1.9,0.3,2.8c-1,2.4-20.5,4-25.5,1.7c-3.9-1.9-19.4-4.3-25.8-5.3c-2.4-0.3-4.3-2.3-4.6-4.7
		C347.4,632.9,347.6,632,348.1,631.3z"/>
	<g class="st17">
		<path d="M283,246c-0.3-1.4-0.6-2.9-0.7-4.3c0,1.8,0.3,3.6,0.7,5.4c0,0,0,0.1,0,0.1C283.1,246.8,283.1,246.4,283,246z"/>
		<path d="M300.6,267.1c2,0.5,2.9,3.1,4.9,3.7c1.7,0.5,3.5-0.6,4.3-2.2c0.7-1.6,1-3.4,0.8-5.1c0-2,0-3.9,0-5.9
			c0-2.2,0.1-4.5,1.4-6.2c1.6-2.1,5.5-3,8.1-2.9c1.7,0,3.4,0.7,4.6,1.8c1.3,1.3,3.1,1.9,4.9,1.7c1.6-0.2,2.9-1.4,3.4-2.9
			c0.2-0.8,0.1-1.6,0.4-2.3c0.5-1.9,2.5-2.8,3.9-4.2c1.5-1.7,2.2-3.9,2-6.1c-0.1,1.9-0.8,3.6-2,5c-1.3,1.4-3.3,2.4-3.9,4.2
			c-0.2,0.8-0.2,1.6-0.4,2.3c-0.5,1.6-1.8,2.7-3.4,2.9c-1.8,0.2-3.6-0.4-4.9-1.7c-1.2-1.2-2.9-1.9-4.6-1.9c-2.6-0.1-6.5,0.8-8.1,2.9
			c-1.3,1.7-1.4,4-1.4,6.2c0,2,0,3.9,0,5.9c0.1,1.8-0.1,3.5-0.8,5.1c-0.8,1.6-2.6,2.8-4.3,2.2c-2-0.6-2.9-3.3-4.9-3.7
			c-1.6-0.2-3.1,0.7-3.8,2.2c-0.5,1.2-0.7,2.5-0.6,3.8c0-0.9,0.2-1.8,0.6-2.7C297.4,267.8,299,266.9,300.6,267.1z"/>
		<path d="M277.2,261.2c-0.1,0.9,0,1.7,0.2,2.6c0.4,1.2,1.1,2.3,2,3.2l7.8,9.4c3.1,3.7,6.3,7.9,6.5,12.5c0.2-5-3.2-9.6-6.5-13.6
			c-2.6-3.1-5.2-6.2-7.8-9.4c-0.9-0.9-1.6-2-2-3.3C277.2,262.3,277.2,261.8,277.2,261.2z"/>
		<path d="M293.7,289.8c0,0.3-0.1,0.7-0.1,1c1.6,0.7,3.6-0.7,4.1-2.4c0.2-0.8,0.3-1.5,0.2-2.3c0,0.4-0.1,0.9-0.2,1.3
			C297.3,289.1,295.3,290.5,293.7,289.8z"/>
	</g>
	<path class="st12" d="M364.8,619.4c9,3.8,11.4-0.5,11.4-0.5"/>
	<path class="st12" d="M283.2,623c9.7,6.1,17.5-3,17.5-3"/>
	<path class="st12" d="M281,516.4c0,0,3,3.4,2.8,1.4s-5.6-5.4-5.6-5.4L281,516.4z"/>
	<path class="st12" d="M283.8,545.1c2.7,1.6,3-3.7-1.1-3.9c-2.5-0.1-4.8-1-6.7-2.6C276,538.6,281.1,543.5,283.8,545.1z"/>
	<path class="st12" d="M279.7,552.4c-2.1,2.5-4.8-10.4-4.8-10.4"/>
</g>
<g class="st18">
	<rect x="471.2" y="376.8" class="st19" width="66" height="14"/>
	<rect x="622.7" y="376.8" class="st19" width="66" height="14"/>
	<rect x="774.3" y="376.8" class="st19" width="66" height="14"/>
</g>
<path class="st8" d="M466.5,474.5c0-20.4,16.6-36.1,37.1-36.1h0.3v-9.3h-0.3c-25.6,0-46.4,19.9-46.4,45.4c0,13.4,5.8,26.1,15.9,34.9
	l6.6-6.6C471.3,495.8,466.5,485.5,466.5,474.5z"/>
<path class="st6" d="M504.8,429.1v9.3c20.5,0.1,37,16.8,36.8,37.3c-0.1,20.5-16.8,37-37.3,36.8c-8.7-0.1-17.1-3.2-23.7-8.8l-6.6,6.6
	c19.3,16.9,48.6,14.9,65.4-4.4c16.9-19.3,14.9-48.6-4.4-65.4C526.6,433.2,515.9,429.2,504.8,429.1L504.8,429.1z"/>
<path class="st6" d="M808.8,437.9c20.4,0,36.1,16.6,36.1,37.1c0,0.1,0,0.2,0,0.3h9.3c0-0.1,0-0.2,0-0.3c0-25.6-19.9-46.4-45.4-46.4
	c-13.4,0-26.1,5.8-34.9,15.9l6.6,6.6C787.5,442.8,797.9,437.9,808.8,437.9z"/>
<path class="st8" d="M854.2,476.2h-9.3c-0.1,20.5-16.8,37-37.3,36.8c-20.5-0.1-37-16.8-36.8-37.3c0.1-8.7,3.2-17.1,8.8-23.7
	l-6.6-6.6c-16.9,19.3-14.9,48.6,4.4,65.4c19.3,16.9,48.6,14.9,65.4-4.4C850.1,498.1,854.2,487.4,854.2,476.2L854.2,476.2z"/>
<path class="st6" d="M674,431.8l-1.8,9.3c13.6,5.5,22.3,18.8,22.3,34.4c0,20.5-16.6,37.1-37.1,37.1c-20.5,0-37.1-16.6-37.1-37.1
	c0-14.7,8.7-28.1,22.2-34l-4.1-8.3c-23.3,10.5-33.8,38-23.2,61.3c10.5,23.3,38,33.8,61.3,23.2c16.6-7.5,27.3-24,27.3-42.2
	C703.8,455.4,691.9,438.3,674,431.8z"/>
<path class="st8" d="M658.6,437.9c4.4,0,8.8,0.9,12.9,2.7l1.8-9.2c-4.7-1.8-9.7-2.7-14.8-2.7c-6.6,0-13,1.4-19,4.1l4.2,8.3
	C648.4,438.9,653.5,437.9,658.6,437.9z"/>
<path class="st8" d="M665,461L665,461c-3.2,0-6,1.7-7.6,4.1c-1.6-2.5-4.4-4.1-7.5-4.1h-0.1c-4.9,0-8.9,4-8.9,8.9
	c0,2.9,1.3,7.1,3.8,10.5c4.8,6.5,12.7,12.2,12.7,12.2s7.9-5.7,12.7-12.2c2.5-3.4,3.8-7.6,3.8-10.5C673.9,465,669.9,461.1,665,461z
	 M663.9,480.9c-0.7,0-1.4-0.5-1.6-1.1h-1.9c-0.3,0-0.5-0.2-0.6-0.4l-0.6-1.7l-1.8,6.4c-0.1,0.3-0.3,0.4-0.6,0.4h0
	c-0.3,0-0.5-0.2-0.5-0.5l-1.9-11.3l-1.4,6.7c-0.1,0.3-0.3,0.4-0.6,0.4h-2.6c-0.3,0-0.6-0.2-0.6-0.6c0-0.3,0.2-0.6,0.6-0.6
	c0,0,0,0,0,0h2.2l1.9-9c0.1-0.3,0.4-0.5,0.7-0.4c0.2,0.1,0.4,0.2,0.4,0.5l1.9,11.5l1.6-5.7c0.1-0.2,0.3-0.4,0.6-0.4h0
	c0.3,0,0.5,0.2,0.6,0.4l1,3.1h1.4c0.3-0.9,1.3-1.4,2.2-1.1c0.9,0.3,1.4,1.3,1.1,2.2C665.3,480.5,664.7,480.9,663.9,480.9
	L663.9,480.9z"/>
<g>
	<path class="st2" d="M290.6,117c-1.3-2.2-7.5-6.4-11.1,0.1c2.3-0.1,2.8,0.5,3.2,1.4c0.5,1-0.2,2.3-1.4,2.5
		c-1.2,0.2-4.6,1.1-6.6,3.6c0.8-2.3,1-4.9-1.7-5.8c0.2,1.4-1.8,2.5-3,3c-1.2,0.5-4.4,1-6.9,4.8c1,2,2.9,4.2,5.9,4.9
		c3,0.7,6-1.6,9.5-1.7c2.3-0.1,4.7,3.1,10.1-0.6C294.3,125.4,291.9,119.1,290.6,117z M269.3,126.1c-1.1,0.1-2.2,0-2.2,0
		c1.2-1.8,1.4-1.9,3-1.8C270.4,125.1,270.4,126,269.3,126.1z M286.4,122.4c-0.5,0.4-1,0.6-1.6,0.7c-0.6,0.1-1.2,0-1.7,0
		c-0.9,0-1.7,0.1-2.5,0.5c-1.2,0.6-2,1.6-2.9,2.5c0-0.5,0.6-1.1,0.8-1.5c0.4-0.4,0.8-0.8,1.3-1.2c0.7-0.5,1.6-0.8,2.5-0.9
		c0.9-0.1,1.9,0,2.8-0.2c1-0.2,1.7-0.7,2.1-1.6c0.3-0.9,0.3-1.9-0.1-2.7c-0.7-1.4-2-2.2-3.5-2.3c0.7-0.1,1.4-0.1,2,0.2
		c0.6,0.3,1.4,0.8,1.8,1.6C288,119,287.8,121.3,286.4,122.4z"/>
	<g>
		<path class="st2" d="M267.9,135.4c0,0.1-0.1,0.1-0.1,0.1c0,0-0.1,0-0.1,0c-0.1,0-0.1,0-0.2,0c-0.1,0-0.1-0.1-0.2-0.1
			s-0.2-0.1-0.3-0.1c-0.1,0-0.2,0-0.3,0c-0.2,0-0.4,0-0.5,0.1c-0.1,0.1-0.2,0.2-0.2,0.4c0,0.1,0,0.2,0.1,0.2
			c0.1,0.1,0.1,0.1,0.2,0.2c0.1,0,0.2,0.1,0.3,0.1c0.1,0,0.3,0.1,0.4,0.1c0.1,0,0.3,0.1,0.4,0.2c0.1,0.1,0.2,0.1,0.3,0.2
			c0.1,0.1,0.2,0.2,0.2,0.4c0.1,0.1,0.1,0.3,0.1,0.5c0,0.2,0,0.4-0.1,0.6c-0.1,0.2-0.2,0.4-0.3,0.5c-0.1,0.1-0.3,0.3-0.5,0.3
			c-0.2,0.1-0.5,0.1-0.7,0.1c-0.1,0-0.3,0-0.5,0c-0.2,0-0.3-0.1-0.5-0.1c-0.1-0.1-0.3-0.1-0.4-0.2c-0.1-0.1-0.2-0.2-0.3-0.3l0.3-0.5
			c0,0,0.1-0.1,0.1-0.1c0,0,0.1,0,0.1,0c0.1,0,0.1,0,0.2,0.1c0.1,0,0.1,0.1,0.2,0.1c0.1,0.1,0.2,0.1,0.3,0.1c0.1,0,0.2,0.1,0.4,0.1
			c0.2,0,0.4,0,0.5-0.1c0.1-0.1,0.2-0.2,0.2-0.4c0-0.1,0-0.2-0.1-0.3c-0.1-0.1-0.1-0.1-0.2-0.2c-0.1,0-0.2-0.1-0.3-0.1
			c-0.1,0-0.3-0.1-0.4-0.1c-0.1,0-0.3-0.1-0.4-0.2c-0.1-0.1-0.2-0.1-0.3-0.2c-0.1-0.1-0.2-0.2-0.2-0.4c-0.1-0.2-0.1-0.3-0.1-0.6
			c0-0.2,0-0.4,0.1-0.5c0.1-0.2,0.2-0.3,0.3-0.5c0.1-0.1,0.3-0.2,0.5-0.3c0.2-0.1,0.4-0.1,0.7-0.1c0.1,0,0.3,0,0.4,0
			c0.1,0,0.3,0.1,0.4,0.1s0.2,0.1,0.4,0.2c0.1,0.1,0.2,0.1,0.3,0.2L267.9,135.4z"/>
		<path class="st2" d="M271.9,135.9v4.5h-1v-1.5c-0.1,0.1-0.3,0.2-0.4,0.3c-0.2,0.1-0.4,0.1-0.6,0.1c-0.2,0-0.3,0-0.5-0.1
			c-0.2-0.1-0.3-0.2-0.4-0.3c-0.1-0.1-0.2-0.3-0.3-0.6c-0.1-0.2-0.1-0.5-0.1-0.7c0-0.3,0-0.5,0.1-0.7c0.1-0.2,0.2-0.4,0.3-0.6
			c0.1-0.2,0.3-0.3,0.5-0.4c0.2-0.1,0.4-0.1,0.6-0.1c0.1,0,0.2,0,0.3,0c0.1,0,0.2,0,0.2,0.1c0.1,0,0.1,0.1,0.2,0.1
			c0.1,0,0.1,0.1,0.2,0.2l0-0.1c0-0.1,0.1-0.2,0.3-0.2H271.9z M270.8,136.8c-0.1-0.1-0.2-0.1-0.3-0.2c-0.1,0-0.2-0.1-0.3-0.1
			c-0.1,0-0.2,0-0.3,0.1c-0.1,0-0.1,0.1-0.2,0.2c-0.1,0.1-0.1,0.2-0.1,0.3c0,0.1,0,0.3,0,0.5c0,0.2,0,0.3,0,0.5
			c0,0.1,0.1,0.2,0.1,0.3c0,0.1,0.1,0.1,0.2,0.2c0.1,0,0.1,0,0.2,0c0.1,0,0.1,0,0.2,0c0.1,0,0.1,0,0.2-0.1c0.1,0,0.1-0.1,0.1-0.1
			c0,0,0.1-0.1,0.1-0.1V136.8z"/>
		<path class="st2" d="M275.6,135.9v3.4H275c-0.1,0-0.2-0.1-0.3-0.2l-0.1-0.2c-0.1,0.1-0.1,0.1-0.2,0.2c-0.1,0.1-0.1,0.1-0.2,0.1
			c-0.1,0-0.2,0.1-0.3,0.1c-0.1,0-0.2,0-0.3,0c-0.2,0-0.4,0-0.5-0.1c-0.1-0.1-0.3-0.2-0.4-0.3c-0.1-0.1-0.2-0.3-0.2-0.4
			c-0.1-0.2-0.1-0.3-0.1-0.5v-2.2h1v2.2c0,0.2,0,0.3,0.1,0.4c0.1,0.1,0.2,0.1,0.3,0.1c0.1,0,0.2,0,0.3-0.1s0.2-0.1,0.3-0.2v-2.4
			H275.6z"/>
		<path class="st2" d="M277.5,134.9c0,0.1,0,0.2,0,0.2c0,0.1-0.1,0.1-0.1,0.2c-0.1,0.1-0.1,0.1-0.2,0.1c-0.1,0-0.2,0-0.2,0
			c-0.1,0-0.2,0-0.2,0c-0.1,0-0.1-0.1-0.2-0.1c-0.1-0.1-0.1-0.1-0.1-0.2c0-0.1,0-0.1,0-0.2c0-0.1,0-0.2,0-0.2c0-0.1,0.1-0.1,0.1-0.2
			c0.1-0.1,0.1-0.1,0.2-0.1s0.2,0,0.2,0c0.1,0,0.2,0,0.2,0c0.1,0,0.1,0.1,0.2,0.1c0.1,0.1,0.1,0.1,0.1,0.2
			C277.5,134.8,277.5,134.8,277.5,134.9z M277.4,135.9v3.4h-1v-3.4H277.4z"/>
		<path class="st2" d="M280.6,136.7C280.6,136.7,280.5,136.7,280.6,136.7c-0.1,0.1-0.2,0.1-0.2,0.1c-0.1,0-0.1,0-0.1,0
			c0,0-0.1-0.1-0.1-0.1c-0.1,0-0.1-0.1-0.2-0.1c-0.1,0-0.2,0-0.3,0c-0.1,0-0.2,0-0.3,0.1c-0.1,0-0.2,0.1-0.2,0.2
			c-0.1,0.1-0.1,0.2-0.1,0.3c0,0.1,0,0.3,0,0.4c0,0.3,0.1,0.6,0.2,0.8c0.1,0.2,0.3,0.3,0.5,0.3c0.1,0,0.2,0,0.3,0
			c0.1,0,0.1-0.1,0.2-0.1c0,0,0.1-0.1,0.1-0.1c0,0,0.1,0,0.2,0c0.1,0,0.1,0,0.2,0.1l0.3,0.4c-0.1,0.1-0.2,0.2-0.3,0.3
			c-0.1,0.1-0.2,0.1-0.4,0.2c-0.1,0-0.2,0.1-0.4,0.1c-0.1,0-0.2,0-0.4,0c-0.2,0-0.4,0-0.6-0.1c-0.2-0.1-0.4-0.2-0.5-0.3
			c-0.1-0.2-0.3-0.3-0.3-0.6c-0.1-0.2-0.1-0.5-0.1-0.8c0-0.2,0-0.5,0.1-0.7c0.1-0.2,0.2-0.4,0.3-0.6c0.1-0.2,0.3-0.3,0.5-0.4
			c0.2-0.1,0.5-0.1,0.7-0.1c0.3,0,0.5,0,0.7,0.1c0.2,0.1,0.4,0.2,0.5,0.4L280.6,136.7z"/>
		<path class="st2" d="M282.3,134.3v2.8h0.2c0.1,0,0.1,0,0.1,0c0,0,0.1-0.1,0.1-0.1l0.6-1c0-0.1,0.1-0.1,0.1-0.1c0.1,0,0.1,0,0.2,0
			h0.9l-0.9,1.2c-0.1,0.1-0.2,0.2-0.3,0.3c0.1,0,0.1,0.1,0.1,0.1c0,0,0.1,0.1,0.1,0.2l1,1.6h-0.9c-0.1,0-0.1,0-0.2,0
			c-0.1,0-0.1-0.1-0.1-0.1l-0.6-1.2c0-0.1-0.1-0.1-0.1-0.1c0,0-0.1,0-0.1,0h-0.2v1.5h-1v-5H282.3z"/>
		<path class="st2" d="M285.7,137.7c0,0.3,0.1,0.5,0.3,0.6s0.3,0.2,0.5,0.2c0.1,0,0.2,0,0.3,0c0.1,0,0.2-0.1,0.2-0.1
			c0.1,0,0.1-0.1,0.2-0.1c0.1,0,0.1,0,0.2,0c0.1,0,0.1,0,0.2,0.1l0.3,0.4c-0.1,0.1-0.2,0.2-0.3,0.3c-0.1,0.1-0.2,0.1-0.4,0.2
			c-0.1,0-0.3,0.1-0.4,0.1c-0.1,0-0.3,0-0.4,0c-0.2,0-0.5,0-0.7-0.1c-0.2-0.1-0.4-0.2-0.6-0.3c-0.2-0.2-0.3-0.3-0.4-0.6
			c-0.1-0.2-0.1-0.5-0.1-0.8c0-0.2,0-0.4,0.1-0.7c0.1-0.2,0.2-0.4,0.3-0.5c0.1-0.2,0.3-0.3,0.5-0.4c0.2-0.1,0.4-0.1,0.7-0.1
			c0.2,0,0.4,0,0.6,0.1c0.2,0.1,0.4,0.2,0.5,0.3c0.1,0.1,0.2,0.3,0.3,0.5c0.1,0.2,0.1,0.4,0.1,0.7c0,0.1,0,0.1,0,0.2
			c0,0,0,0.1,0,0.1c0,0,0,0-0.1,0.1c0,0-0.1,0-0.1,0H285.7z M287,137.2c0-0.1,0-0.2,0-0.2c0-0.1-0.1-0.1-0.1-0.2
			c0-0.1-0.1-0.1-0.2-0.1c-0.1,0-0.2-0.1-0.3-0.1c-0.2,0-0.3,0.1-0.5,0.2c-0.1,0.1-0.2,0.3-0.2,0.5H287z"/>
		<path class="st2" d="M289.4,136.4c0.1-0.2,0.2-0.3,0.4-0.4c0.1-0.1,0.3-0.2,0.5-0.2c0.2,0,0.3,0,0.4,0.1l-0.1,0.8
			c0,0,0,0.1-0.1,0.1c0,0-0.1,0-0.1,0c0,0,0,0-0.1,0c0,0-0.1,0-0.1,0c0,0-0.1,0-0.1,0c0,0-0.1,0-0.1,0c-0.1,0-0.3,0-0.4,0.1
			c-0.1,0.1-0.2,0.2-0.2,0.3v2.1h-1v-3.4h0.6c0.1,0,0.1,0,0.1,0c0,0,0.1,0,0.1,0c0,0,0,0,0.1,0.1c0,0,0,0.1,0,0.1L289.4,136.4z"/>
	</g>
</g>
</svg>
