<?xml version="1.0" encoding="utf-8"?>
<!-- Generator: Adobe Illustrator 23.0.3, SVG Export Plug-In . SVG Version: 6.00 Build 0)  -->
<svg version="1.1" id="Calque_1" xmlns="http://www.w3.org/2000/svg" xmlns:xlink="http://www.w3.org/1999/xlink" x="0px" y="0px"
	 viewBox="0 0 255 235" style="enable-background:new 0 0 255 235;" xml:space="preserve">
<style type="text/css">
	.st0{fill:url(#SVGID_1_);}
	.st1{fill:url(#SVGID_2_);}
	.st2{fill:url(#SVGID_3_);}
	.st3{fill:url(#SVGID_4_);}
	.st4{fill:url(#SVGID_5_);}
	.st5{fill:url(#SVGID_6_);}
	.st6{fill:url(#SVGID_7_);}
	.st7{fill:url(#SVGID_8_);}
	.st8{fill:url(#SVGID_9_);}
	.st9{fill:url(#SVGID_10_);}
	.st10{fill:url(#SVGID_11_);}
	.st11{fill:url(#SVGID_12_);}
	.st12{fill:#FFFFFF;}
</style>
<linearGradient id="SVGID_1_" gradientUnits="userSpaceOnUse" x1="118.9078" y1="-382.0157" x2="146.07" y2="-229.9075">
	<stop  offset="0" style="stop-color:#0596DE"/>
	<stop  offset="1" style="stop-color:#28084C"/>
</linearGradient>
<path class="st0" d="M236.1-386.5c-11-18-62-53-92,1c19-1,23,4,27,12s-2,19-12,21s-38,9-55,30c7-19,8-41-14-48c2,12-15,21-25,25
	s-37,8-57,40c8,17,24,35,49,41s50-13,79-14c19-0.7,39,26,84-5C267.4-316.1,247.1-368.5,236.1-386.5z M59.1-310.5c-9,1-18,0-18,0
	c10-15,12-16,25-15C68.1-318.5,68.1-311.5,59.1-310.5z M201.2-341.2c-3.9,3-8.7,5-13.6,5.8c-4.9,0.8-9.7-0.1-14.5-0.2
	c-7.3-0.1-14.5,0.7-21.1,4c-9.8,4.9-16.9,13.2-24.4,20.7c0.2-3.8,4.6-9.3,7.1-12.3c3-3.7,6.6-7,10.6-9.6c6.2-4.1,13.3-6.4,20.7-7.5
	c7.7-1.1,15.4-0.1,23.1-1.4c8.2-1.4,14.4-5.8,17.1-13.6c2.6-7.3,2.3-15.7-1-22.7c-5.6-11.9-16.3-18.2-29-19.5c6.1-1,11.3-0.5,17,2
	c5.2,2.3,12,7,15,13C214.4-369.9,212.7-350.2,201.2-341.2z"/>
<linearGradient id="SVGID_2_" gradientUnits="userSpaceOnUse" x1="118.9078" y1="63.9842" x2="146.07" y2="216.0925">
	<stop  offset="0" style="stop-color:#0596DE"/>
	<stop  offset="1" style="stop-color:#28084C"/>
</linearGradient>
<path class="st1" d="M236.1,59.5c-11-18-62-53-92,1c19-1,23,4,27,12s-2,19-12,21s-38,9-55,30c7-19,8-41-14-48c2,12-15,21-25,25
	s-37,8-57,40c8,17,24,35,49,41s50-13,79-14c19-0.7,39,26,84-5C267.4,129.9,247.1,77.5,236.1,59.5z M59.1,135.5c-9,1-18,0-18,0
	c10-15,12-16,25-15C68.1,127.5,68.1,134.5,59.1,135.5z M201.2,104.8c-3.9,3-8.7,5-13.6,5.8c-4.9,0.8-9.7-0.1-14.5-0.2
	c-7.3-0.1-14.5,0.7-21.1,4c-9.8,4.9-16.9,13.2-24.4,20.7c0.2-3.8,4.6-9.3,7.1-12.3c3-3.7,6.6-7,10.6-9.6c6.2-4.1,13.3-6.4,20.7-7.5
	c7.7-1.1,15.4-0.1,23.1-1.4c8.2-1.4,14.4-5.8,17.1-13.6c2.6-7.3,2.3-15.7-1-22.7c-5.6-11.9-16.3-18.2-29-19.5c6.1-1,11.3-0.5,17,2
	c5.2,2.3,12,7,15,13C214.4,76.1,212.7,95.8,201.2,104.8z"/>
<g>
	<linearGradient id="SVGID_3_" gradientUnits="userSpaceOnUse" x1="40.7041" y1="-274.9892" x2="35.2115" y2="-200.4956">
		<stop  offset="0" style="stop-color:#0596DE"/>
		<stop  offset="1" style="stop-color:#28084C"/>
	</linearGradient>
	<path class="st2" d="M47.2-232.7c-0.3,0.4-0.6,0.8-0.9,1c-0.3,0.2-0.7,0.3-1.2,0.3c-0.4,0-0.9-0.1-1.4-0.4s-1-0.6-1.6-0.9
		s-1.3-0.6-2.1-0.9c-0.8-0.3-1.7-0.4-2.7-0.4c-1.7,0-3,0.4-3.9,1.1c-0.9,0.7-1.3,1.7-1.3,3c0,0.8,0.3,1.5,0.8,2c0.5,0.5,1.2,1,2,1.4
		c0.8,0.4,1.8,0.7,2.9,1.1c1.1,0.3,2.2,0.7,3.3,1.1c1.1,0.4,2.2,0.9,3.3,1.4c1.1,0.5,2,1.2,2.9,2c0.8,0.8,1.5,1.8,2,3
		c0.5,1.2,0.8,2.6,0.8,4.3c0,1.9-0.3,3.6-1,5.2c-0.6,1.6-1.6,3-2.8,4.2c-1.2,1.2-2.7,2.1-4.5,2.8s-3.8,1-6.1,1
		c-1.2,0-2.5-0.1-3.8-0.4c-1.3-0.3-2.5-0.6-3.8-1.1s-2.3-1-3.4-1.7c-1.1-0.6-2-1.4-2.8-2.1l2.8-4.3c0.2-0.3,0.5-0.6,0.9-0.8
		s0.7-0.3,1.2-0.3c0.5,0,1.1,0.2,1.7,0.5c0.6,0.3,1.2,0.7,1.9,1.2c0.7,0.4,1.5,0.8,2.4,1.2c0.9,0.3,2,0.5,3.2,0.5
		c1.7,0,3-0.4,3.9-1.1c0.9-0.7,1.4-1.9,1.4-3.5c0-0.9-0.3-1.7-0.8-2.3c-0.5-0.6-1.2-1.1-2-1.5c-0.8-0.4-1.8-0.7-2.8-1
		c-1.1-0.3-2.2-0.6-3.3-1c-1.1-0.4-2.2-0.8-3.3-1.3s-2-1.2-2.8-2.1c-0.8-0.9-1.5-1.9-2-3.2c-0.5-1.3-0.8-2.8-0.8-4.7
		c0-1.5,0.3-3,0.9-4.4s1.5-2.7,2.7-3.8s2.6-2,4.3-2.7c1.7-0.7,3.7-1,5.9-1c1.2,0,2.4,0.1,3.6,0.3c1.2,0.2,2.3,0.5,3.3,0.9
		s2,0.8,2.9,1.3c0.9,0.5,1.7,1.1,2.4,1.8L47.2-232.7z"/>
	<linearGradient id="SVGID_4_" gradientUnits="userSpaceOnUse" x1="71.812" y1="-272.6955" x2="66.3193" y2="-198.2019">
		<stop  offset="0" style="stop-color:#0596DE"/>
		<stop  offset="1" style="stop-color:#28084C"/>
	</linearGradient>
	<path class="st3" d="M80.3-229.3v37.6h-8.5v-12.2c-1.1,1.1-2.3,1.9-3.6,2.6c-1.3,0.7-2.9,1-4.7,1c-1.5,0-2.9-0.3-4.1-1
		c-1.3-0.7-2.4-1.6-3.3-2.9c-0.9-1.2-1.6-2.8-2.2-4.6s-0.8-3.9-0.8-6.2c0-2.1,0.3-4.1,0.9-5.9c0.6-1.8,1.4-3.4,2.5-4.7
		c1.1-1.3,2.4-2.4,3.9-3.1c1.5-0.8,3.2-1.1,5-1.1c0.9,0,1.6,0.1,2.3,0.2c0.7,0.1,1.3,0.4,1.9,0.6c0.6,0.3,1.1,0.6,1.6,1
		c0.5,0.4,1,0.8,1.4,1.3l0.4-1.1c0.3-1,1-1.4,2.1-1.4H80.3z M71.8-221.7c-0.6-0.7-1.3-1.2-2.1-1.5c-0.8-0.3-1.5-0.4-2.4-0.4
		c-0.8,0-1.5,0.2-2.2,0.5c-0.7,0.3-1.2,0.8-1.7,1.5c-0.5,0.7-0.9,1.6-1.1,2.7c-0.3,1.1-0.4,2.4-0.4,4c0,1.5,0.1,2.8,0.3,3.8
		c0.2,1,0.5,1.9,0.9,2.5c0.4,0.6,0.9,1.1,1.4,1.4c0.5,0.3,1.2,0.4,1.8,0.4c0.6,0,1.2-0.1,1.7-0.2c0.5-0.1,1-0.3,1.4-0.5
		c0.4-0.2,0.8-0.5,1.2-0.8c0.4-0.3,0.7-0.7,1.1-1.2V-221.7z"/>
	<linearGradient id="SVGID_5_" gradientUnits="userSpaceOnUse" x1="102.8479" y1="-270.4071" x2="97.3552" y2="-195.9135">
		<stop  offset="0" style="stop-color:#0596DE"/>
		<stop  offset="1" style="stop-color:#28084C"/>
	</linearGradient>
	<path class="st4" d="M111.7-229.3v28.5h-5.3c-1.1,0-1.8-0.5-2.1-1.4l-0.5-1.7c-0.6,0.5-1.1,1-1.7,1.4c-0.6,0.4-1.2,0.8-1.9,1.1
		c-0.7,0.3-1.4,0.5-2.2,0.7c-0.8,0.2-1.6,0.3-2.5,0.3c-1.6,0-2.9-0.3-4.1-0.8c-1.2-0.5-2.2-1.3-3-2.3c-0.8-1-1.4-2.1-1.9-3.4
		c-0.4-1.3-0.6-2.8-0.6-4.3v-18.1h8.5v18.1c0,1.4,0.3,2.5,1,3.3c0.6,0.8,1.6,1.2,2.8,1.2c0.9,0,1.8-0.2,2.6-0.6s1.6-0.9,2.4-1.6
		v-20.3H111.7z"/>
	<linearGradient id="SVGID_6_" gradientUnits="userSpaceOnUse" x1="125.1463" y1="-268.763" x2="119.6537" y2="-194.2694">
		<stop  offset="0" style="stop-color:#0596DE"/>
		<stop  offset="1" style="stop-color:#28084C"/>
	</linearGradient>
	<path class="st5" d="M127.1-237.1c0,0.7-0.1,1.3-0.4,1.9c-0.3,0.6-0.7,1.1-1.1,1.6s-1,0.8-1.7,1.1s-1.3,0.4-2,0.4
		c-0.7,0-1.3-0.1-2-0.4s-1.1-0.6-1.6-1.1s-0.8-1-1.1-1.6s-0.4-1.2-0.4-1.9c0-0.7,0.1-1.3,0.4-2c0.3-0.6,0.6-1.1,1.1-1.6
		s1-0.8,1.6-1.1s1.3-0.4,2-0.4c0.7,0,1.4,0.1,2,0.4s1.2,0.6,1.7,1.1s0.9,1,1.1,1.6C126.9-238.5,127.1-237.8,127.1-237.1z
		 M126.2-229.3v28.5h-8.5v-28.5H126.2z"/>
	<linearGradient id="SVGID_7_" gradientUnits="userSpaceOnUse" x1="147.2947" y1="-267.1299" x2="141.8021" y2="-192.6364">
		<stop  offset="0" style="stop-color:#0596DE"/>
		<stop  offset="1" style="stop-color:#28084C"/>
	</linearGradient>
	<path class="st6" d="M153.1-222.6c-0.3,0.3-0.5,0.6-0.7,0.7c-0.2,0.2-0.6,0.3-1,0.3c-0.4,0-0.8-0.1-1.1-0.3
		c-0.3-0.2-0.7-0.4-1.1-0.7c-0.4-0.2-0.9-0.5-1.5-0.7c-0.6-0.2-1.3-0.3-2.1-0.3c-1,0-1.9,0.2-2.7,0.6c-0.8,0.4-1.4,0.9-1.9,1.7
		s-0.9,1.6-1.1,2.6c-0.2,1-0.4,2.2-0.4,3.5c0,2.7,0.5,4.8,1.6,6.3c1.1,1.5,2.5,2.2,4.4,2.2c1,0,1.8-0.1,2.4-0.4
		c0.6-0.2,1.1-0.5,1.5-0.8c0.4-0.3,0.8-0.6,1.1-0.8c0.3-0.3,0.8-0.4,1.3-0.4c0.7,0,1.2,0.2,1.5,0.7l2.5,3.1c-0.9,1-1.8,1.8-2.8,2.5
		c-1,0.6-2,1.1-3,1.5s-2,0.6-3.1,0.7c-1,0.1-2,0.2-3,0.2c-1.7,0-3.4-0.3-5-1c-1.6-0.7-3-1.6-4.2-2.9c-1.2-1.3-2.2-2.8-2.9-4.6
		c-0.7-1.8-1.1-3.9-1.1-6.3c0-2.1,0.3-4,0.9-5.8c0.6-1.8,1.5-3.3,2.7-4.6c1.2-1.3,2.7-2.3,4.5-3.1c1.8-0.8,3.8-1.1,6.1-1.1
		c2.2,0,4.2,0.4,5.9,1.1c1.7,0.7,3.2,1.8,4.6,3.1L153.1-222.6z"/>
	<linearGradient id="SVGID_8_" gradientUnits="userSpaceOnUse" x1="176.1772" y1="-265.0004" x2="170.6845" y2="-190.5068">
		<stop  offset="0" style="stop-color:#0596DE"/>
		<stop  offset="1" style="stop-color:#28084C"/>
	</linearGradient>
	<path class="st7" d="M167.4-242v23.1h1.3c0.5,0,0.9-0.1,1.2-0.2c0.3-0.2,0.5-0.4,0.8-0.8l5.4-8c0.3-0.5,0.7-0.8,1.1-1
		c0.4-0.2,1-0.3,1.6-0.3h7.8l-7.4,10.1c-0.7,0.9-1.5,1.7-2.5,2.3c0.4,0.3,0.8,0.7,1.2,1.1c0.3,0.4,0.7,0.9,1,1.4l8,13.6h-7.7
		c-0.6,0-1.2-0.1-1.6-0.3c-0.5-0.2-0.8-0.6-1.2-1.1l-5.4-10.1c-0.3-0.5-0.5-0.8-0.8-0.9c-0.3-0.1-0.7-0.2-1.2-0.2h-1.6v12.6h-8.5
		V-242H167.4z"/>
	<linearGradient id="SVGID_9_" gradientUnits="userSpaceOnUse" x1="204.0325" y1="-262.9465" x2="198.5399" y2="-188.4529">
		<stop  offset="0" style="stop-color:#0596DE"/>
		<stop  offset="1" style="stop-color:#28084C"/>
	</linearGradient>
	<path class="st8" d="M195.3-213.6c0.3,2.4,1,4.1,2.2,5.2s2.7,1.6,4.5,1.6c1,0,1.8-0.1,2.6-0.4c0.7-0.2,1.4-0.5,1.9-0.8
		s1.1-0.6,1.5-0.8c0.5-0.2,1-0.4,1.5-0.4c0.7,0,1.2,0.2,1.5,0.7l2.5,3.1c-0.9,1-1.8,1.8-2.8,2.5c-1,0.6-2.1,1.1-3.1,1.5
		c-1.1,0.4-2.1,0.6-3.2,0.7c-1.1,0.1-2.1,0.2-3.1,0.2c-2,0-3.9-0.3-5.6-1c-1.8-0.7-3.3-1.6-4.6-2.9s-2.3-2.9-3.1-4.8
		c-0.8-1.9-1.1-4.1-1.1-6.7c0-1.9,0.3-3.7,1-5.4s1.6-3.2,2.8-4.5s2.7-2.3,4.4-3.1c1.7-0.8,3.7-1.1,5.9-1.1c1.9,0,3.6,0.3,5.2,0.9
		s2.9,1.4,4,2.6s2,2.5,2.6,4.1c0.6,1.6,0.9,3.5,0.9,5.5c0,0.6,0,1.2-0.1,1.6s-0.2,0.7-0.3,1c-0.1,0.2-0.3,0.4-0.6,0.5
		c-0.2,0.1-0.6,0.1-0.9,0.1H195.3z M206.1-218.5c0-0.7-0.1-1.3-0.3-2c-0.2-0.6-0.5-1.2-0.9-1.7c-0.4-0.5-0.9-0.9-1.6-1.2
		c-0.6-0.3-1.4-0.5-2.3-0.5c-1.6,0-2.9,0.5-3.8,1.4c-0.9,0.9-1.5,2.3-1.8,4H206.1z"/>
	<linearGradient id="SVGID_10_" gradientUnits="userSpaceOnUse" x1="229.3796" y1="-261.0776" x2="223.887" y2="-186.584">
		<stop  offset="0" style="stop-color:#0596DE"/>
		<stop  offset="1" style="stop-color:#28084C"/>
	</linearGradient>
	<path class="st9" d="M226-224.9c0.9-1.5,1.9-2.8,3-3.6c1.1-0.9,2.5-1.3,3.9-1.3c1.3,0,2.3,0.3,3.1,0.9l-0.5,6.3
		c-0.1,0.4-0.2,0.7-0.5,0.8c-0.2,0.1-0.5,0.2-0.9,0.2c-0.1,0-0.3,0-0.6,0c-0.2,0-0.5,0-0.7-0.1c-0.3,0-0.5-0.1-0.8-0.1
		c-0.3,0-0.5,0-0.7,0c-1.2,0-2.2,0.3-3,1s-1.4,1.6-1.9,2.8v17.3H218v-28.5h5.1c0.4,0,0.8,0,1.1,0.1s0.5,0.2,0.7,0.3
		c0.2,0.2,0.3,0.4,0.4,0.6c0.1,0.3,0.2,0.6,0.3,0.9L226-224.9z"/>
</g>
<linearGradient id="SVGID_11_" gradientUnits="userSpaceOnUse" x1="550.7507" y1="233.9199" x2="715.6241" y2="40.2589">
	<stop  offset="0" style="stop-color:#0596DE"/>
	<stop  offset="1" style="stop-color:#28084C"/>
</linearGradient>
<circle class="st10" cx="640.5" cy="128.5" r="114.5"/>
<linearGradient id="SVGID_12_" gradientUnits="userSpaceOnUse" x1="556.5232" y1="98.5374" x2="724.4768" y2="98.5374">
	<stop  offset="0" style="stop-color:#FFFFFF"/>
	<stop  offset="1" style="stop-color:#FFFFFF"/>
</linearGradient>
<path class="st11" d="M714.8,65.5c-7.6-12.5-43-36.8-63.9,0.7c13.2-0.7,16,2.8,18.7,8.3c2.8,5.6-1.4,13.2-8.3,14.6
	c-6.9,1.4-26.4,6.2-38.2,20.8c4.9-13.2,5.6-28.5-9.7-33.3c1.4,8.3-10.4,14.6-17.4,17.4s-25.7,5.6-39.6,27.8
	c5.6,11.8,16.7,24.3,34,28.5c17.4,4.2,34.7-9,54.9-9.7c13.2-0.5,27.1,18.1,58.3-3.5C736.6,114.3,722.5,77.9,714.8,65.5z
	 M591.9,118.2c-6.2,0.7-12.5,0-12.5,0c6.9-10.4,8.3-11.1,17.4-10.4C598.2,112.7,598.2,117.5,591.9,118.2z M690.6,96.9
	c-2.7,2.1-6,3.5-9.4,4c-3.4,0.5-6.7-0.1-10.1-0.1c-5.1-0.1-10,0.5-14.6,2.8c-6.8,3.4-11.7,9.1-17,14.4c0.1-2.7,3.2-6.4,4.9-8.5
	c2.1-2.6,4.6-4.8,7.3-6.7c4.3-2.9,9.2-4.5,14.3-5.2c5.3-0.7,10.7-0.1,16-1c5.7-1,10-4.1,11.9-9.4c1.8-5.1,1.6-10.9-0.7-15.8
	c-3.9-8.3-11.3-12.7-20.1-13.5c4.2-0.7,7.9-0.4,11.8,1.4c3.6,1.6,8.3,4.9,10.4,9C699.8,77,698.6,90.7,690.6,96.9z"/>
<g>
	<path class="st12" d="M582.2,176.1c-0.2,0.3-0.4,0.5-0.6,0.7c-0.2,0.2-0.5,0.2-0.8,0.2c-0.3,0-0.6-0.1-1-0.3s-0.7-0.4-1.2-0.6
		c-0.4-0.2-0.9-0.4-1.5-0.6c-0.6-0.2-1.2-0.3-1.9-0.3c-1.2,0-2.2,0.3-2.8,0.8c-0.6,0.5-0.9,1.2-0.9,2.1c0,0.6,0.2,1.1,0.5,1.4
		c0.4,0.4,0.8,0.7,1.4,1c0.6,0.3,1.3,0.5,2,0.8c0.8,0.2,1.5,0.5,2.3,0.8c0.8,0.3,1.6,0.6,2.3,1c0.8,0.4,1.4,0.9,2,1.5
		c0.6,0.6,1.1,1.3,1.4,2.1c0.4,0.8,0.5,1.9,0.5,3.1c0,1.3-0.2,2.6-0.7,3.7c-0.5,1.2-1.1,2.2-2,3c-0.9,0.9-1.9,1.5-3.2,2
		c-1.3,0.5-2.7,0.7-4.3,0.7c-0.9,0-1.8-0.1-2.7-0.3c-0.9-0.2-1.8-0.4-2.7-0.8c-0.9-0.3-1.7-0.7-2.4-1.2c-0.8-0.5-1.4-1-2-1.5l2-3.1
		c0.2-0.2,0.4-0.4,0.6-0.6c0.3-0.2,0.5-0.2,0.8-0.2c0.4,0,0.8,0.1,1.2,0.4c0.4,0.2,0.8,0.5,1.4,0.8c0.5,0.3,1.1,0.6,1.7,0.8
		c0.7,0.2,1.4,0.4,2.3,0.4c1.2,0,2.1-0.3,2.8-0.8c0.7-0.5,1-1.4,1-2.5c0-0.7-0.2-1.2-0.5-1.6c-0.4-0.4-0.8-0.8-1.4-1
		c-0.6-0.3-1.3-0.5-2-0.7c-0.8-0.2-1.5-0.4-2.3-0.7c-0.8-0.3-1.6-0.6-2.3-0.9c-0.8-0.4-1.4-0.9-2-1.5c-0.6-0.6-1.1-1.4-1.4-2.3
		c-0.4-0.9-0.5-2-0.5-3.4c0-1.1,0.2-2.1,0.6-3.1c0.4-1,1.1-1.9,1.9-2.7c0.8-0.8,1.9-1.4,3.1-1.9c1.2-0.5,2.6-0.7,4.2-0.7
		c0.9,0,1.7,0.1,2.6,0.2c0.8,0.1,1.6,0.3,2.4,0.6s1.4,0.6,2.1,1c0.6,0.4,1.2,0.8,1.7,1.3L582.2,176.1z"/>
	<path class="st12" d="M605.8,178.6v26.8h-6.1v-8.7c-0.8,0.8-1.6,1.4-2.6,1.8c-1,0.5-2.1,0.7-3.4,0.7c-1.1,0-2-0.2-2.9-0.7
		c-0.9-0.5-1.7-1.2-2.3-2c-0.7-0.9-1.2-2-1.5-3.3c-0.4-1.3-0.6-2.8-0.6-4.4c0-1.5,0.2-2.9,0.6-4.2c0.4-1.3,1-2.4,1.8-3.4
		c0.8-0.9,1.7-1.7,2.8-2.2c1.1-0.5,2.3-0.8,3.6-0.8c0.6,0,1.2,0.1,1.7,0.2c0.5,0.1,1,0.3,1.4,0.5c0.4,0.2,0.8,0.4,1.1,0.7
		c0.4,0.3,0.7,0.6,1,0.9l0.3-0.8c0.2-0.7,0.7-1,1.5-1H605.8z M599.7,184c-0.5-0.5-1-0.9-1.5-1.1c-0.5-0.2-1.1-0.3-1.7-0.3
		c-0.6,0-1.1,0.1-1.5,0.3c-0.5,0.2-0.9,0.6-1.2,1.1c-0.3,0.5-0.6,1.1-0.8,1.9c-0.2,0.8-0.3,1.7-0.3,2.8c0,1.1,0.1,2,0.2,2.7
		c0.2,0.7,0.4,1.3,0.7,1.8c0.3,0.5,0.6,0.8,1,1c0.4,0.2,0.8,0.3,1.3,0.3c0.4,0,0.8,0,1.2-0.1c0.4-0.1,0.7-0.2,1-0.4
		c0.3-0.2,0.6-0.4,0.9-0.6c0.3-0.2,0.5-0.5,0.8-0.8V184z"/>
	<path class="st12" d="M628.2,178.6v20.3h-3.8c-0.8,0-1.3-0.3-1.5-1l-0.4-1.2c-0.4,0.4-0.8,0.7-1.2,1c-0.4,0.3-0.9,0.6-1.3,0.8
		c-0.5,0.2-1,0.4-1.5,0.5c-0.6,0.1-1.2,0.2-1.8,0.2c-1.1,0-2.1-0.2-3-0.6c-0.9-0.4-1.6-0.9-2.2-1.6c-0.6-0.7-1-1.5-1.3-2.5
		c-0.3-0.9-0.5-2-0.5-3.1v-12.9h6.1v12.9c0,1,0.2,1.8,0.7,2.3c0.5,0.5,1.1,0.8,2,0.8c0.7,0,1.3-0.1,1.9-0.4c0.6-0.3,1.1-0.7,1.7-1.1
		v-14.5H628.2z"/>
	<path class="st12" d="M639.2,173c0,0.5-0.1,0.9-0.3,1.4c-0.2,0.4-0.5,0.8-0.8,1.1c-0.3,0.3-0.7,0.6-1.2,0.8
		c-0.5,0.2-0.9,0.3-1.4,0.3c-0.5,0-1-0.1-1.4-0.3c-0.4-0.2-0.8-0.4-1.1-0.8c-0.3-0.3-0.6-0.7-0.8-1.1c-0.2-0.4-0.3-0.9-0.3-1.4
		c0-0.5,0.1-1,0.3-1.4c0.2-0.4,0.5-0.8,0.8-1.1c0.3-0.3,0.7-0.6,1.1-0.8c0.4-0.2,0.9-0.3,1.4-0.3c0.5,0,1,0.1,1.4,0.3
		c0.5,0.2,0.8,0.4,1.2,0.8c0.3,0.3,0.6,0.7,0.8,1.1C639.1,172,639.2,172.5,639.2,173z M638.5,178.6v20.3h-6.1v-20.3H638.5z"/>
	<path class="st12" d="M657.7,183.4c-0.2,0.2-0.4,0.4-0.5,0.5c-0.2,0.1-0.4,0.2-0.7,0.2c-0.3,0-0.6-0.1-0.8-0.2
		c-0.2-0.1-0.5-0.3-0.8-0.5c-0.3-0.2-0.7-0.3-1.1-0.5c-0.4-0.1-0.9-0.2-1.5-0.2c-0.7,0-1.4,0.1-1.9,0.4c-0.5,0.3-1,0.7-1.3,1.2
		c-0.4,0.5-0.6,1.1-0.8,1.9c-0.2,0.7-0.3,1.6-0.3,2.5c0,1.9,0.4,3.4,1.1,4.5c0.8,1,1.8,1.6,3.1,1.6c0.7,0,1.3-0.1,1.7-0.3
		c0.4-0.2,0.8-0.4,1-0.6c0.3-0.2,0.6-0.4,0.8-0.6c0.2-0.2,0.5-0.3,0.9-0.3c0.5,0,0.8,0.2,1.1,0.5l1.8,2.2c-0.6,0.7-1.3,1.3-2,1.8
		c-0.7,0.5-1.4,0.8-2.1,1.1c-0.7,0.3-1.5,0.4-2.2,0.5c-0.7,0.1-1.4,0.1-2.1,0.1c-1.2,0-2.4-0.2-3.6-0.7c-1.1-0.5-2.1-1.2-3-2.1
		c-0.9-0.9-1.5-2-2-3.3c-0.5-1.3-0.8-2.8-0.8-4.5c0-1.5,0.2-2.8,0.7-4.1c0.4-1.3,1.1-2.4,1.9-3.3c0.9-0.9,1.9-1.7,3.2-2.2
		c1.3-0.5,2.7-0.8,4.4-0.8c1.6,0,3,0.3,4.2,0.8c1.2,0.5,2.3,1.3,3.3,2.2L657.7,183.4z"/>
	<path class="st12" d="M668,169.5V186h0.9c0.4,0,0.7-0.1,0.9-0.2c0.2-0.1,0.4-0.3,0.6-0.6l3.8-5.7c0.2-0.3,0.5-0.6,0.8-0.7
		c0.3-0.2,0.7-0.2,1.2-0.2h5.6l-5.3,7.2c-0.5,0.7-1.1,1.2-1.8,1.6c0.3,0.2,0.6,0.5,0.8,0.8c0.2,0.3,0.5,0.6,0.7,1l5.7,9.7h-5.5
		c-0.5,0-0.9-0.1-1.2-0.2c-0.3-0.1-0.6-0.4-0.8-0.8l-3.8-7.2c-0.2-0.3-0.4-0.5-0.6-0.6c-0.2-0.1-0.5-0.1-0.9-0.1H668v9h-6.1v-29.4
		H668z"/>
	<path class="st12" d="M687.9,189.8c0.2,1.7,0.7,2.9,1.5,3.7c0.8,0.8,1.9,1.1,3.2,1.1c0.7,0,1.3-0.1,1.8-0.3c0.5-0.2,1-0.4,1.4-0.6
		c0.4-0.2,0.8-0.4,1.1-0.6c0.3-0.2,0.7-0.3,1-0.3c0.5,0,0.9,0.2,1.1,0.5l1.8,2.2c-0.6,0.7-1.3,1.3-2,1.8c-0.7,0.5-1.5,0.8-2.2,1.1
		c-0.8,0.3-1.5,0.4-2.3,0.5c-0.8,0.1-1.5,0.1-2.2,0.1c-1.4,0-2.8-0.2-4-0.7c-1.2-0.5-2.3-1.2-3.3-2.1s-1.7-2.1-2.2-3.4
		c-0.5-1.4-0.8-2.9-0.8-4.7c0-1.4,0.2-2.6,0.7-3.9c0.5-1.2,1.1-2.3,2-3.2c0.9-0.9,1.9-1.6,3.2-2.2c1.2-0.5,2.6-0.8,4.2-0.8
		c1.3,0,2.6,0.2,3.7,0.6s2.1,1,2.9,1.8c0.8,0.8,1.4,1.8,1.9,2.9c0.5,1.2,0.7,2.5,0.7,3.9c0,0.5,0,0.8-0.1,1.1c0,0.3-0.1,0.5-0.2,0.7
		c-0.1,0.2-0.2,0.3-0.4,0.4c-0.2,0.1-0.4,0.1-0.7,0.1H687.9z M695.5,186.3c0-0.5-0.1-1-0.2-1.4c-0.1-0.5-0.3-0.9-0.6-1.2
		c-0.3-0.4-0.7-0.7-1.1-0.9c-0.5-0.2-1-0.3-1.7-0.3c-1.2,0-2.1,0.3-2.7,1c-0.7,0.7-1.1,1.6-1.3,2.9H695.5z"/>
	<path class="st12" d="M709.7,181.7c0.6-1.1,1.4-2,2.2-2.6c0.8-0.6,1.8-0.9,2.8-0.9c0.9,0,1.7,0.2,2.2,0.6l-0.4,4.5
		c-0.1,0.3-0.2,0.5-0.3,0.6c-0.2,0.1-0.4,0.2-0.6,0.2c-0.1,0-0.2,0-0.4,0c-0.2,0-0.3,0-0.5,0c-0.2,0-0.4,0-0.6-0.1
		c-0.2,0-0.4,0-0.5,0c-0.9,0-1.6,0.2-2.1,0.7c-0.5,0.5-1,1.1-1.3,2v12.4H704v-20.3h3.6c0.3,0,0.6,0,0.8,0.1c0.2,0.1,0.4,0.1,0.5,0.2
		c0.1,0.1,0.2,0.3,0.3,0.4c0.1,0.2,0.1,0.4,0.2,0.7L709.7,181.7z"/>
</g>
</svg>
