<?xml version="1.0" encoding="utf-8"?>
<!-- Generator: Adobe Illustrator 23.0.3, SVG Export Plug-In . SVG Version: 6.00 Build 0)  -->
<svg version="1.1" id="b783d195-b08f-4839-b9b5-a9b86d08906a"
	 xmlns="http://www.w3.org/2000/svg" xmlns:xlink="http://www.w3.org/1999/xlink" x="0px" y="0px" viewBox="0 0 575 764"
	 style="enable-background:new 0 0 575 764;" xml:space="preserve">
<style type="text/css">
	.st0{fill:#F2F2F2;}
	.st1{fill:#3F3D56;}
	.st2{fill:#0596DE;}
	.st3{fill:#A0616A;}
	.st4{fill:#28084C;}
	.st5{fill:#2F2E41;}
	.st6{fill:#575A89;}
</style>
<title>terms</title>
<path class="st0" d="M556.9,734.8H1.2V24.2c0,0,590-54.4,555.8,0S556.9,734.8,556.9,734.8z"/>
<polygon class="st1" points="558.1,736 0,736 0,23 332.4,23 332.4,25.4 2.4,25.4 2.4,733.7 555.8,733.7 555.8,170.1 558.1,170.1 "/>
<path class="st1" d="M407.1,208.2c-15.4,0-32-3.2-47.1-12.7c-43.8-27.7-85.8-0.3-86.2,0l-0.1,0.1c-0.4,0.2-26.3,12.6-56.9,12.6
	c-15.4,0-32-3.2-47.1-12.7c-43.8-27.7-85.8-0.3-86.2,0l-1.3-2c0.4-0.3,43.7-28.5,88.8,0c43.2,27.3,99.5,1,101.7,0
	c2.1-1.3,44.5-27.9,88.7,0c43.9,27.7,101.1,0.2,101.7-0.1l1,2.1C463.7,195.7,437.7,208.2,407.1,208.2z"/>
<path class="st1" d="M407.1,264.9c-15.4,0-32-3.2-47.1-12.7c-43.8-27.7-85.8-0.3-86.2,0l-0.1,0.1c-0.4,0.2-26.3,12.6-56.9,12.6
	c-15.4,0-32-3.2-47.1-12.7c-43.8-27.7-85.8-0.3-86.2,0l-1.3-2c0.4-0.3,43.7-28.5,88.8,0c43.2,27.3,99.5,1,101.7,0
	c2.1-1.3,44.5-27.9,88.7,0c43.9,27.7,101.1,0.2,101.7-0.1l1,2.1C463.7,252.5,437.7,264.9,407.1,264.9z"/>
<path class="st1" d="M407.1,321.7c-15.4,0-32-3.2-47.1-12.7c-43.8-27.7-85.8-0.3-86.2,0l-0.1,0.1c-0.4,0.2-26.3,12.6-56.9,12.6
	c-15.4,0-32-3.2-47.1-12.7c-43.8-27.7-85.8-0.3-86.2,0l-1.3-2c0.4-0.3,43.7-28.5,88.8,0c43.2,27.3,99.5,1,101.7,0
	c2.1-1.3,44.5-27.9,88.7,0c43.9,27.7,101.1,0.2,101.7-0.1l1,2.1C463.7,309.2,437.7,321.7,407.1,321.7z"/>
<path class="st1" d="M227.9,378.5c-0.5,0-1,0-1.4,0c-7.7-0.5-14.6-4.9-20.4-13.1c-5.7-8.1-11.9-12.2-18.3-12.1
	c-10.7,0.1-18.8,12-18.9,12.1l-0.1,0.1c-0.5,0.6-12.8,13.9-27.4,13c-7.7-0.5-14.6-4.9-20.4-13.1c-5.7-8.1-11.9-12.2-18.3-12.1
	c-10.7,0.1-18.8,12-18.9,12.1l-2-1.3c0.4-0.5,8.8-13,20.8-13.1c7.3-0.1,14,4.3,20.3,13.1c5.4,7.6,11.6,11.6,18.6,12.1
	c13,0.8,24.6-11.2,25.5-12.1c0.8-1.2,9.2-12.9,20.8-13.1c0.1,0,0.1,0,0.2,0c7.1,0,13.9,4.4,20,13.1c5.4,7.6,11.6,11.6,18.6,12.1
	c13.5,0.9,25.4-12.1,25.6-12.2l1.7,1.6C253.4,366.1,241.9,378.5,227.9,378.5z"/>
<polygon class="st1" points="334.6,603.6 223.5,603.6 223.5,527.9 308.6,527.9 308.6,530.3 225.9,530.3 225.9,601.2 332.3,601.2 
	332.3,565.7 334.6,565.7 "/>
<path class="st2" d="M69.8,104.6c-7.8,0-14.2-6.4-14.2-14.2s6.4-14.2,14.2-14.2c7.8,0,14.2,6.4,14.2,14.2l0,0
	C83.9,98.2,77.6,104.6,69.8,104.6z M69.8,78.6c-6.5,0-11.8,5.3-11.8,11.8c0,6.5,5.3,11.8,11.8,11.8c6.5,0,11.8-5.3,11.8-11.8v0
	C81.6,83.9,76.3,78.6,69.8,78.6L69.8,78.6z"/>
<polygon class="st2" points="308.1,577.8 280,539 287.6,533.4 309.2,563.1 391.6,478.5 398.3,485.1 "/>
<path class="st3" d="M413.3,269.5c0,0,14.2,36.7-11.8,36.7s40.2,36.7,66.2,15.4s10.6-22.5,10.6-22.5s-34.3,3.5-33.1-27.2
	L413.3,269.5z"/>
<circle class="st4" cx="429.3" cy="234.9" r="46.1"/>
<path d="M406.2,422.1L361.2,538c0,0-22.5,35.5-14.2,70.9s27.2,99.3,27.2,99.3s21.3-8.3,20.1-23.6s9.5-69.8-8.3-89.9l62.7-88.7
	l2.4,93.4c0,0-4.7,42.6-3.5,61.5s3.5,50.8,3.5,50.8l14.2-2.4c0,0,24.8-87.5,22.5-115.9c0,0,44.9-138.3,0-171.5L406.2,422.1z"/>
<path class="st5" d="M377.8,702.3c0,0-10.6,0-9.5,9.5s-9.5,55.6,13,52s24.8-26,24.8-41.4s1.2-16.6,3.5-20.1s9.5-34.3,0-33.1
	s-20.1,7.1-20.1,7.1S393.2,702.3,377.8,702.3z"/>
<path class="st5" d="M458.2,702.3c0,0-16.6-2.4-15.4,3.5s-2.4,30.7,0,33.1s7.1,7.1,7.1,10.6s1.2,15.4,21.3,11.8s15.4-21.3,14.2-23.6
	s-15.4-14.2-14.2-21.3S465.3,697.6,458.2,702.3z"/>
<circle class="st3" cx="429.8" cy="254.2" r="31.9"/>
<path class="st6" d="M460,296.1c0,0,10.2,20.2-20.9,20.6c-9.8,0.1-19.1-8.3-25.3-15.8c-2.2-2.7-3.1,2.8-7.1,2.4
	c-10.6-1.2-39.6,0.6-39.6,19.5s33.1,91,30.7,98.1s-14.2,5.9,0,10.6s42.6-7.1,61.5,2.4s36.7-14.2,36.7-14.2L524.4,318
	C524.4,318,481.3,291.4,460,296.1z"/>
<path class="st3" d="M377.8,487.1c0,0-29.6,23.6-16.6,31.9s28.4-31.9,28.4-31.9H377.8z"/>
<path class="st3" d="M491.3,402c0,0-39,15.4-26,23.6s26-14.2,26-14.2V402z"/>
<path class="st6" d="M379,310.9L379,310.9c-8.9,3.2-14.9,11.6-15,21l-1.5,90.1c0,0-7.1,73.3,10.6,73.3s30.7,5.9,33.1,0
	s-8.3-59.1-8.3-59.1L379,310.9z"/>
<path class="st6" d="M502,314.5l22.5,3.5c0,0,62.7,30.7,48.5,52s-74.5,52-74.5,52s-22.5-10.6-15.4-17.7s39-31.9,39-31.9l-27.2-24.8
	L502,314.5z"/>
<polygon class="st4" points="459.7,229.6 436.3,217.4 404,222.4 397.3,251.9 413.9,251.3 418.6,240.4 418.6,251.1 426.3,250.8 
	430.7,233.5 433.5,251.9 460.8,251.3 "/>
<circle class="st4" cx="431.7" cy="182.4" r="18.6"/>
<path class="st4" d="M408.2,176.7c0-9.2,6.7-17,15.8-18.4c-10.2-1.6-19.6,5.4-21.2,15.6s5.4,19.6,15.6,21.2c1.9,0.3,3.8,0.3,5.6,0
	C414.9,193.7,408.2,185.9,408.2,176.7z"/>
</svg>
