<?xml version="1.0" encoding="utf-8"?>
<!-- Generator: Adobe Illustrator 23.0.3, SVG Export Plug-In . SVG Version: 6.00 Build 0)  -->
<svg version="1.1" id="a490d581-c356-41e2-b0f0-0de4275777d8"
	 xmlns="http://www.w3.org/2000/svg" xmlns:xlink="http://www.w3.org/1999/xlink" x="0px" y="0px" viewBox="0 0 810.3 560.1"
	 style="enable-background:new 0 0 810.3 560.1;" xml:space="preserve">
<style type="text/css">
	.st0{fill:url(#SVGID_1_);}
	.st1{fill:#FBBEBE;}
	.st2{fill:#3F3D56;}
	.st3{fill:#130526;}
	.st4{opacity:0.1;enable-background:new    ;}
	.st5{fill:#2C3768;}
	.st6{fill:#E3E8F4;}
	.st7{fill:url(#SVGID_2_);}
	.st8{fill:url(#SVGID_3_);}
	.st9{fill:url(#SVGID_4_);}
	.st10{fill:url(#SVGID_5_);}
	.st11{fill:url(#SVGID_6_);}
	.st12{fill:url(#SVGID_7_);}
	.st13{opacity:0.1;}
	.st14{fill:url(#SVGID_8_);}
	.st15{fill:#F86D70;}
	.st16{fill:#D66369;}
	.st17{fill:url(#SVGID_9_);}
	.st18{fill:#444053;}
	.st19{fill:#E8E8F0;}
	.st20{fill:url(#SVGID_10_);}
	.st21{fill:url(#SVGID_11_);}
	.st22{fill:#0596DE;}
	.st23{opacity:0.1;fill:#FFFFFF;enable-background:new    ;}
</style>
<title>winners</title>
<linearGradient id="SVGID_1_" gradientUnits="userSpaceOnUse" x1="697.8914" y1="-67.0357" x2="697.8914" y2="335.3259" gradientTransform="matrix(1 0 0 -1 -28 345.4258)">
	<stop  offset="0" style="stop-color:#808080;stop-opacity:0.25"/>
	<stop  offset="0.54" style="stop-color:#808080;stop-opacity:0.12"/>
	<stop  offset="1" style="stop-color:#808080;stop-opacity:0.1"/>
</linearGradient>
<path class="st0" d="M795.7,227.5c-1.4-1.1-3.1-1.8-4.9-2.1c-1.9-0.4-3.8-0.7-5.7-1l-24.6-3.5c-2.5-0.5-5-0.6-7.5-0.4
	c-2.6,0.2-4.9,1.4-6.6,3.4c-0.7,0.9-1.1,2-1.1,3.2c0.1,1.2,0.5,2.3,1.1,3.3c0.2,0.5,0.4,1,0.6,1.5c0.2,1.1,0.5,2.2,0.9,3.4
	c0.1,0.2,0.3,0.5,0.4,0.7c0,0.1,0,0.1,0,0.2c-0.3,1.4,0.6,2.8,0.2,4.1c-0.3,1.1-1.5,1.8-2.2,2.8c-1,1.4-1,3.2-0.1,4.6
	c0.8,1.2,2.1,2,2.5,3.3c0.5,1.8-0.9,3.4-2.1,4.8c-2.3,2.5-4.4,5.1-6.3,7.9c-0.5,0.7-0.9,1.5-1,2.4c-0.1,1.7,1.6,3.3,1.3,5
	c-0.2,1.4-1.6,2.2-2.7,3c-4.2,2.8-7.7,7.3-8,12.4c-1.1-8.1-4.4-15.7-9.7-22c-1.4-1.7-3-3.5-3.6-5.6c-0.2-0.9-0.3-1.8-0.6-2.6
	c-1-2.6-4.2-3.8-5.6-6.2c-1-1.7-1-3.9-2.2-5.4s-3.2-1.9-4.3-3.3c-0.5-1-1-2-1.4-3.1c-0.4-0.9-1.1-1.6-1.8-2.2
	c-0.1-0.1-0.3-0.2-0.5-0.3c0.3-0.3,0.5-0.7,0.5-1.2c0-1.2-1.2-1.9-2.2-2.5c-1.3-0.7-2.6-1.5-3.8-2.4c1.4-0.6,2.5-1.6,3.4-2.8
	c1.1-1.8,1.6-3.9,1.3-6c-0.1-1.7-0.7-3.3-1.8-4.6c-0.6-0.7-1.4-1.1-2.1-1.8c-1.7-1.7-2.3-4.1-3-6.4c-0.9-3-2.4-6.1-5.2-7.7
	c-1.3-0.8-2.9-1.1-4.2-1.9s-2.4-2.3-1.9-3.8c0.3-1,1.2-1.7,1.9-2.5c1.6-2.3,1-5.4-1.3-7c-0.7-0.5-1.7-0.9-1.8-1.7
	c-1.2-0.3-2.1-1.3-2.3-2.5c-0.2-1.2-0.2-2.4,0-3.6c0.3-1.9,0.5-3.7,0.8-5.6c0.9,0.4,1.9,0.4,2.8,0c0.9,1.4,1.9,2.7,3,3.9
	c3,3.6,5.4,7.7,7,12.1c0.6,1.6,1.2,3.4,2.6,4.2c0.5,0.3,1.1,0.4,1.6,0.8c0.6,0.4,1.1,1,1.6,1.6c1.2,1.6,2.4,3.2,3.6,4.8l0.1,0.2
	c0,0.1,0.1,0.3,0.2,0.4c0.2,0.2,0.5,0.4,0.9,0.4c3.7,0.9,7.8,1.6,11-0.4c2.9-1.8,4.1-5.4,6.6-7.7c1.7-1.7,4.2-3,4.7-5.4
	c-0.6-0.2-1.2-0.4-1.7-0.6c0.5-0.5,1-1.1,1.7-1.7c1-1,1.9-2,2.7-3.2c0.8-1.4,1.5-2.9,2-4.5c1.9-5.5,3.9-11,5.8-16.5
	c0.9-2.6,1.8-5.2,3-7.8c1.2-2.7,2.6-5.4,3.9-8.1c3.4-7,6-14.3,7.8-21.9c0.3-1,0.4-2.1,0.3-3.2c-0.3-1.7-1.6-3.1-2.8-4.3
	c-1.3-1.4-2.7-2.5-4.3-3.5c-1.6-1-3.5-1.3-5.3-0.9c-2.6,0.8-4.2,3.4-4.8,6s-0.4,5.3-0.6,8c-0.4,3.9-1.7,7.6-2,11.4
	c-0.2,2.2,0,4.5-0.3,6.7c-0.5,2.9-1.5,5.7-3,8.3c-3.2,6.1-7.6,11.5-12.9,15.9c-0.6,0.5-1.2,1-1.8,1.5c0-0.4,0.1-0.9,0.1-1.3
	c-0.4,0.1-0.9,0.3-1.3,0.5c0.1-0.5,0-1-0.2-1.5c-0.8-2.4-4.4-3-5-5.4c-0.1-0.6-0.2-1.2-0.2-1.8c-0.2-2.1-1.7-3.9-2.2-6
	c-0.5-1.9-0.1-4-1-5.8c-0.8-1.1-1.7-2.1-2.7-3c-1.2-1.4-2.1-3-2.5-4.8c-0.1-0.5-0.2-1-0.4-1.5c0.2-1.1,0-2.2-0.4-3.3
	c-0.9-2.3-3.3-3.7-4.1-6c-0.7-1.8-0.4-4-1.6-5.4c-0.7-0.7-1.5-1.1-2.4-1.4c-4.6-1.8-9.4-2.9-14.3-3.4c-2.7-0.2-5.8-0.4-7.7-2.3
	c-2.3-2.2-2.4-6.3-5.1-8c-2.4-1.5-5.7-0.4-7.5,1.8c-0.3,0.3-0.5,0.7-0.8,1c-0.3-1.3-0.4-2.7-0.2-4.1c0-0.3,0.1-0.7,0.1-1
	c4.5-1.5,8.4-4.5,10.8-8.6c0,0,0,0,0,0.1l0.1,0.3c0.3,0.7,0.8,1.4,1.4,1.5l0,0c0.5,0,0.9-0.2,1.2-0.5c0.6-0.4,1.2-0.9,1.7-1.4
	c0.3-0.3,0.5-0.6,0.7-0.9c0.5-0.6,0.9-1.3,1.2-2c0.5-1.1,0.8-2.2,1-3.4c0.2-1.2,0.2-2.4,0.4-3.5c0.2-0.9,0.4-1.8,0.7-2.6
	c0.1-0.3,0.2-0.6,0.3-0.9s0.2-0.7,0.3-1c0.6-2.1,1-4.2,1-6.3c0-0.4,0-0.7,0-1.1c-0.1-2.8-1.3-5.5-3.4-7.5c-1.7-1.4-4-2-5.3-3.9
	c-0.8-1.3-1-2.9-1.5-4.4c-1.1-3.7-4.1-6.4-7.9-7.1c-2.2-0.2-4.4,0.4-6.2,1.7l0,0l-0.1,0.1l0,0c-1,0.8-1.8,1.7-2.5,2.8
	c-1.3-0.4-2.5-1.1-3.5-2c-1-0.9-1.8-2.1-2.8-3c-1.9-1.8-4.7-2.3-7.1-1.5c-2.5,1-4.4,3.2-5.1,5.8c-0.5,2.1-0.5,4.4-1.6,6.1
	c-0.9,1.3-2.3,2-3.4,3.2c-0.6,0.8-1.1,1.7-1.3,2.7l0,0c-0.1,0.5-0.2,1.1-0.2,1.7l0,0c0,0.2,0,0.5,0.1,0.7c0,0,0,0.1,0,0.1
	c0,0.3,0.1,0.5,0.2,0.8l0,0c0.3,1,0.8,2,1.5,2.7c0.7,0.8,1.5,1.4,2.4,1.7c0.4,0.1,0.8,0.3,1.2,0.4l1.2,0.3l0.4,0.1
	c-2.9,5.5-3.1,12-0.6,17.6c0,0.3-0.1,0.6-0.1,0.8c-0.2,3.9,0,7.9,0.5,11.8c0.1,1.5,0.2,3.3-0.7,4.5c-0.4,0.5-0.9,0.9-1.5,1.3
	c0.5-0.7,1.1-1.4,1.7-2.1c-1.4-1.4-3.6-1.6-5.6-1.5c-3.9,0.3-7.6,1.4-11,3.4c-2.2,1.3-4.5,3-7.1,2.7c-1.5-0.2-3-1-4.5-0.6
	c-0.8,0.3-1.6,0.8-2.3,1.4c-0.5,0.4-1.2,0.6-1.9,0.6c-1.6-1.9-4-3.2-5.9-4.8c-2.1-1.9-4.1-4-5.8-6.3c-3.2-3.9-6.5-7.8-9.7-11.8
	c-2.7-3.3-5.4-6.9-5.9-11.2c0-0.4-0.1-0.8-0.1-1.3c0.1-2,0.3-4,0.8-6c0.1-0.5,0.1-1,0-1.5c-0.3-1-1.5-1.4-2.4-1.6l0,0
	c0.1-0.8,0.2-1.6,0.3-2.3c0.6-8.6,0-17.3,1.8-25.8c0.7-3.2,1.8-6.5,4.2-8.9c3.7-3.7,9.8-4.6,12.6-8.9c2.3-3.6,1.4-8.8-1.5-12
	s-7.5-4.5-11.8-4.4c-1.2,0-2.4,0.3-3.4,0.9c-1,0.9-1.7,1.9-2.1,3.2l-4.3,10.4c-1.2,2.7-2.3,5.5-3.1,8.4c-1.2,4.4-1.5,9-2.4,13.4
	c0,3.4-2.2,7.6-3.4,10.8c-1.3,3.5-2.8,7-4,10.6c-0.3,0.9-1.3,3.6-2,6c-0.2,0.1-0.5,0.3-0.7,0.5c-0.5,0.7-1,1.4-1.4,2.1
	c-0.9,1.2-2.4,1.8-3.4,3s-1.2,3.3,0.2,3.9c0.3,0.1,0.6,0.2,0.9,0.2c0.2,0,0.4,0,0.5,0.1c1.5,0.4,2.1,2.3,1.9,3.9s-1,3-1.1,4.6
	c-0.3,2.8,1.3,5.3,2.9,7.6c1.6,2.5,3.4,4.9,5.3,7.2c1.4,1.6,3,3,4.4,4.5c5.4,5.6,9.7,12.1,14.6,18.1c1.7,2.3,3.7,4.4,5.9,6.2
	c1.4,1.1,2.9,2.2,4.5,3.1l8.4,5.3c0.9,0.7,2,1.2,3.2,1.5c0.4,0,0.7,0,1.1,0c0,0.2,0.1,0.5,0.2,0.7c0.7,2.6,2.1,5,2.2,7.7
	s-0.1,5.4,0.1,8.1c0.2,2.5,0.7,5,0.9,7.5c0.3,4.7-0.9,9.4-2,14c-1.7,6.8-2.7,13.7-6,19.8c-0.9,1.7-2,3.4-2,5.3c0,0.2,0,0.5,0.1,0.7
	l0,0l-1.5,0.9c-0.4,0.2-0.9,0.5-1.3,0.8c-1.9,1.2-3.9,2.6-4.7,4.8c-0.6,1.7-0.3,3.7-1.1,5.4c0,0.1-0.1,0.1-0.1,0.2
	c-0.8,1.6-2.4,2.7-2.8,4.4l0,0c-0.3,1.3,0.2,2.7,0,4c0,0,0,0,0,0c-0.2,0.7-0.4,1.3-0.5,2c0,0.2,0,0.4,0.1,0.7c0.2,0.8,0.6,1.4,1.2,2
	c0.4,0.3,0.8,0.7,1.2,0.9c0.4,0.3,0.9,0.5,1.3,0.8l0.3,0.1c0.4,0.2,0.8,0.4,1.2,0.6l0.3,0.1c0.5,0.2,0.9,0.4,1.4,0.5l0.3,0.1
	c0.4,0.1,0.7,0.2,1.1,0.3l0.2,0.1l0.2,0l1,0.2l0.4,0.1c0.4,0.1,0.9,0.1,1.3,0.2h0.4c0.3,0,0.7,0,1,0.1h0.5c0.3,0,0.7,0,1,0h0.4
	c0.5,0,0.9-0.1,1.4-0.1h0.2c0.4-0.1,0.8-0.1,1.3-0.2l0.3-0.1c0.4-0.1,0.8-0.2,1.2-0.3l0.2-0.1c0.5-0.1,0.9-0.3,1.4-0.5
	c1.6-0.7,3.1-1.4,4.6-2.3c1-0.5,2-1.1,3-1.6c0.7-0.4,1.5-0.7,2.3-1c1.9-0.8,3.9-1.2,6-1c1,0.1,2,0.3,3,0.6c0,0.1,0,0.2,0,0.3
	c0.8,4.8,1.6,9.6,2.4,14.4c1.3-0.9,2.7-1.8,4.1-2.5c-0.3,0.7-0.4,1.5-0.5,2.2c-0.1,0.6-0.1,1.2,0,1.8c0.1,1,0.3,2-0.3,2.8
	c-0.3,0.5-1,0.7-1.2,1.2c-0.1,0.5-0.2,1.1-0.1,1.6c-0.1,1.3-1.1,2.3-2.4,2.4c0.6,1.7,0,3.5-1.5,4.5c-0.4,0.2-0.8,0.5-1.2,0.8
	c-0.3,0.4-0.6,1-0.7,1.5c-1.3,5-4,9.4-7.8,12.9c-1.4,1.1-2.7,2.4-3.9,3.8c-0.7,1.1-1.3,2.2-1.8,3.5c-2.7,6.5-5.4,13-8.1,19.6
	c-1.5,3.7-3,7.4-3.5,11.3c-1.2,10.8-10.8,19.9-9,30.6c0.4,2.7,1.4,5.2,3.1,7.3c2,2.4,5,3.8,8,4.9c7.7,3,15.8,4.6,23.9,6.3l12.7,2.6
	c2.5,0.6,5,1,7.6,1.2c3.1,0.2,6.2-0.1,9.2,0.7c1.8,0.5,3.6,1.4,5.5,1.5c1.6,0.1,3.7-0.3,4.6,1.1s0.2,3.1,1.1,4.3
	c1.5,1.9,5.1,0,6.7,1.8c0.4,0.7,0.8,1.4,1,2.2c0.2,0.5,0.6,0.9,1,1.3c0.1,0.6,0.1,1.1,0.1,1.7c-0.2,2.3-0.7,4.6-1.4,6.8
	c-1.2,4.1-2.4,8.1-3.6,12.2c-0.5,1.4-0.8,2.9-1,4.4c-0.1,0.7-0.1,1.5,0,2.2c0.2,2.2,1.5,4.5,3.6,5.2c1.6,0.4,3.4,0.2,4.9-0.6
	c1.4-0.7,2.8-1.7,4-2.7c2.2-1.7,4.2-3.7,5.8-5.9c5-7.5,3.4-17.6,6.9-25.9c2.3-5.5,6.9-10,8.4-15.8c0.4-1.1,0.4-2.3,0.1-3.4
	c-0.6-2-2.8-3.1-4.8-3.9h-0.1c-1.6-0.6-3.3-1.1-5-1.4c-0.4-0.1-0.8-0.2-1.3-0.2c-1-0.8-1.7-1.8-2.2-2.9c-0.1-0.6-0.2-1.2-0.5-1.7
	c-0.3-0.5-0.9-0.8-1.4-0.8c-1-0.1-2.3,0.3-3.4,0.2c-2.2-0.2-3.7-2.3-5.7-3.4s-4.2-0.8-6.3-0.6c-0.8,0.1-1.5,0.1-2.3-0.1
	c-0.9-0.4-1.7-1-2.4-1.7c-2.5-1.9-5.8-2.6-8.8-1.8c-1,0.4-2,0.6-3,0.7c-2-0.1-3.3-1.8-4.8-3.2c-3.9-3.6-9.5-4.6-14.3-6.9
	c-0.7-0.3-1.3-0.8-1.7-1.5c-0.5-1.4,0.7-2.7,1.8-3.7l8.2-6.8c9-7.5,20.2-13.1,24.4-24.1c0.4-1.5,1.1-2.9,2-4.1
	c0.3-0.4,0.7-0.7,1.1-1c1.8-1.2,4-1.6,6.2-1.2c2.6,0.6,5.1,1.7,7.2,3.2c3.6,2.2,7.1,4.5,10.5,7c3.4,2.4,6.5,5,9.6,7.8
	c5.2,5,9.6,10.9,14.5,16.3s10.5,10.4,17.3,13s15,2.5,20.8-1.9c6.7-5,8.9-13.9,10.6-22.1c3.8-3.6,4.9-9.1,6.7-14
	c1.2-3.1,2.6-6,3.9-9.1c1.5-3.6,2.6-7.4,3.8-11.1c1.3-3.7,2.2-7.6,2.7-11.6c0.5-6.2-1.2-12.9,0.6-18.7c2.3-0.5,4.4-1.8,6.7-2.6
	c3.4-1.1,7-0.9,10.6-0.9h0.2c1.2,0.1,2.5-0.2,3.5-0.8c1.2-1,1.4-2.7,1.5-4.3C798.8,234.3,798.5,230,795.7,227.5z M650.8,57
	c-0.8,0.2-1.7,0.3-2.5,0.2L650.8,57z"/>
<path class="st1" d="M654.7,120.2c-1.2,1-2.6,1.8-4.2,2.2l-7.1,2.5c-3.8,1.4-7.9,2.8-11.9,2.3c-2.3-0.3-12-1.7-13.5-3.5
	c-2.2-2.7,5.6-6.8,8.3-9.1c0.6-0.4,1.2-0.9,1.7-1.5c1-1.2,0.9-2.9,0.7-4.5c-0.5-3.9-0.7-7.8-0.5-11.8c0.1-0.9,0.2-1.9,0.4-2.8
	c1-4.6,5.3-2.9,8.7-1.7c4.1,1.3,8,3,11.8,5.1c1.1,0.6,2.1,1.4,2.9,2.5c1.5,2.2,0.9,5.2,0.7,8c-0.2,2.2-0.2,4.3,1.2,5.9
	c0.7,0.6,1.3,1.3,1.9,2C656.3,117.4,655.9,119.1,654.7,120.2z"/>
<path class="st1" d="M556.8,48.1c1-4.4,1.2-9,2.4-13.4c0.8-2.9,1.9-5.6,3.1-8.4l4.4-10.3c0.4-1.2,1.1-2.3,2.1-3.1
	c1-0.6,2.2-1,3.4-0.9c4.3-0.2,8.8,1.2,11.8,4.4s3.9,8.3,1.5,11.9c-2.8,4.4-8.9,5.2-12.6,8.9c-2.3,2.4-3.5,5.6-4.2,8.9
	c-1.8,8.4-1.2,17.1-1.8,25.7c-0.2,2.7-0.7,5.7-3,7.1c-1.4,0.7-2.9,1-4.5,0.9l-6.6,0.1c-1.1,0-5.1,0.7-5.8-0.1
	c-1.3-1.5,1.6-8.7,2.2-10.3c1.2-3.6,2.6-7,4-10.6C554.6,55.8,556.8,51.5,556.8,48.1z"/>
<path class="st2" d="M692.2,362.3c-1.5,5.8-6,10.3-8.4,15.8c-3.5,8.2-1.9,18.3-6.9,25.8c-1.6,2.3-3.6,4.3-5.8,6
	c-1.2,1-2.6,1.9-4,2.7c-1.5,0.8-3.2,1-4.9,0.6c-2.1-0.7-3.4-3-3.6-5.2c-0.1-0.7-0.1-1.4,0-2.2c0.2-1.5,0.5-3,1-4.4
	c1.2-4,2.4-8.1,3.6-12.2c0.7-2.2,1.2-4.5,1.4-6.8c0.1-2.5-1.5-5.8-0.8-8.2c0.3-1.1,1.5-2,2-2.9c0.8-1.3,1.3-2.7,1.7-4.1
	c0.8-2.8,1.4-5.8,3.1-8.1c1.1-1.4,2.4-2.6,3.9-3.7c1.1-0.9,2.3-1.7,3.7-2.1c1.3-0.2,2.7-0.2,4,0.2c1.7,0.4,3.4,0.8,5,1.4h0.1
	c2,0.7,4.1,1.8,4.8,3.8C692.6,360,692.5,361.2,692.2,362.3z"/>
<path class="st2" d="M798.6,239.4c-0.1,1.5-0.2,3.3-1.5,4.2c-1,0.7-2.3,1-3.5,0.8h-0.3c-3.6,0-7.2-0.2-10.6,0.9
	c-2.6,0.9-4.9,2.4-7.6,2.7c-3.7,0.4-7.2-1.6-10.4-3.4c-3.1-1.7-6.2-3.2-9.5-4.5c-2.1-0.9-6.5-1.4-7.5-3.8c-0.3-1.1-0.6-2.2-0.9-3.3
	c-0.2-0.5-0.4-1-0.6-1.5c-0.6-1-1-2.1-1.1-3.3c0-1.2,0.4-2.3,1.1-3.2c1.6-2,4-3.2,6.5-3.4c2.5-0.2,5.1-0.1,7.5,0.4l24.6,3.5
	c1.9,0.3,3.8,0.5,5.7,1c1.8,0.3,3.5,1,4.9,2.1C798.5,231.3,798.8,235.6,798.6,239.4z"/>
<path class="st3" d="M777,245.8c-3,6.3-0.8,13.8-1.4,20.8c-0.5,3.9-1.3,7.8-2.7,11.5c-1.2,3.7-2.3,7.5-3.8,11.1
	c-1.2,3-2.7,6-3.9,9.1c-1.8,4.9-3,10.4-6.7,14c-1.7,8.2-3.9,17.1-10.6,22.1c-5.8,4.3-14,4.5-20.8,1.9s-12.4-7.6-17.3-13
	s-9.3-11.3-14.5-16.3c-3-2.8-6.2-5.4-9.6-7.8c-3.4-2.5-6.9-4.8-10.5-6.9c-2.2-1.5-4.6-2.6-7.2-3.1c-2.1-0.4-4.3,0-6.2,1.2
	c-0.4,0.3-0.8,0.6-1.1,1c-0.9,1.2-1.6,2.6-2,4.1c-4.2,10.9-15.5,16.6-24.5,24l-8.2,6.8c-1.1,0.9-2.4,2.3-1.8,3.6
	c0.4,0.7,1,1.2,1.7,1.5c4.8,2.4,10.4,3.3,14.3,6.9c1.4,1.3,2.8,3.1,4.8,3.2c1-0.1,2-0.3,3-0.7c3.1-0.8,6.3-0.2,8.8,1.8
	c0.7,0.7,1.5,1.2,2.4,1.7c0.7,0.2,1.5,0.2,2.3,0.1c2.1-0.2,4.4-0.3,6.3,0.6s3.5,3.2,5.7,3.3c1.1,0.1,2.4-0.3,3.4-0.2
	c0.6,0,1.1,0.3,1.4,0.8c0.2,0.5,0.4,1.1,0.5,1.7c0.4,1.4,1.8,2.3,2.7,3.4c1.4,1.8,1.6,4.2,1.4,6.5c-0.5,7-3.6,13.6-8.8,18.4
	c-1.5,1.5-3.3,2.5-5.4,3c-2.1,0.4-4.3-0.5-5.3-2.4c-0.2-0.8-0.6-1.5-1-2.2c-1.6-1.8-5.2,0.1-6.7-1.8c-0.9-1.2-0.3-3.1-1.1-4.3
	s-3-1-4.6-1.1c-1.9-0.1-3.7-1-5.5-1.5c-3-0.8-6.1-0.5-9.2-0.7c-2.6-0.2-5.1-0.6-7.6-1.2l-12.7-2.6c-8.1-1.7-16.2-3.3-23.9-6.3
	c-3-1.1-5.9-2.5-8-4.9c-1.7-2.1-2.8-4.6-3.1-7.3c-1.8-10.7,7.8-19.8,9-30.5c0.4-3.9,2-7.6,3.5-11.3c2.7-6.5,5.4-13,8.1-19.5
	c0.4-1.2,1-2.4,1.7-3.5c1.2-1.4,2.4-2.7,3.9-3.8c3.8-3.4,6.5-7.9,7.8-12.8c0.1-0.6,0.3-1.1,0.7-1.5c0.4-0.3,0.7-0.5,1.2-0.8
	c1.5-1,2.1-2.8,1.5-4.5c1.3-0.1,2.3-1.1,2.4-2.4c-0.1-0.5,0-1.1,0.1-1.6c0.2-0.5,0.8-0.8,1.2-1.2c0.6-0.8,0.4-1.8,0.3-2.7
	c-0.1-0.6-0.1-1.2,0-1.8c0.2-2.1,1.2-4.1,2.7-5.6c2.4-2.4,5.8-1.7,9.1-2.3c3.3-0.7,6.5-1.7,9.6-3.1c8.7-3.4,17.8-5.5,27.1-6.3
	c9.3-0.7,18.7,0.8,27.4,4.4c1.3,0.5,2.4,1.2,3.5,2c0.8,0.6,1.4,1.3,1.8,2.2c0.4,1.1,0.8,2.1,1.4,3.1c1.1,1.5,3.1,1.9,4.3,3.3
	s1.3,3.7,2.2,5.4c1.4,2.4,4.6,3.6,5.6,6.2c0.3,0.8,0.3,1.8,0.6,2.6c0.5,2.2,2.2,3.9,3.6,5.6c5.2,6.3,8.6,13.9,9.7,22
	c0.3-5.1,3.7-9.6,8-12.4c1.2-0.8,2.5-1.6,2.7-2.9c0.3-1.7-1.4-3.2-1.3-5c0.1-0.9,0.5-1.7,1-2.3c1.9-2.8,4-5.4,6.3-7.9
	c1.2-1.3,2.6-3,2.1-4.8c-0.4-1.3-1.8-2.1-2.5-3.3c-0.9-1.4-0.9-3.2,0.1-4.6c0.7-1,1.8-1.6,2.2-2.8c0.4-1.3-0.5-2.8-0.2-4.1
	c0.4-1.1,1.1-2,2.1-2.7c1.3-1.2,2.8-2.2,4.5-2.9c2.6-1,5.6-0.6,8.4-0.2c4.7,0.6,9.9,1.6,12.6,5.6C777.4,239.4,778.2,243.1,777,245.8
	z"/>
<path class="st4" d="M798.6,239.4c-0.1,1.5-0.2,3.3-1.5,4.2c-1,0.7-2.3,1-3.5,0.8h-0.3c0.4-2.1,2.9-3.3,3.4-5.4
	c0.2-1.3-0.2-2.6-1.1-3.6c-2.1-2.9-5.6-4.5-9-5.7c-9.7-3.3-20-4.1-30.1-2.2c-2.7,0.4-5.4,1.3-7.9,2.4c-0.8,0.5-1.6,1.1-2.4,1.7
	c-0.6-1-1-2.1-1.1-3.3c0-1.2,0.4-2.3,1.1-3.2c1.6-2,4-3.2,6.5-3.4c2.5-0.2,5.1-0.1,7.5,0.4l24.6,3.5c1.9,0.3,3.8,0.5,5.7,1
	c1.8,0.3,3.5,1,4.9,2.1C798.5,231.3,798.8,235.6,798.6,239.4z"/>
<path class="st4" d="M692.2,362.3c-1.5,5.8-6,10.3-8.4,15.8c-3.5,8.2-1.9,18.3-6.9,25.8c-1.6,2.3-3.6,4.3-5.8,6
	c-1.2,1-2.6,1.9-4,2.7c-1.5,0.8-3.2,1-4.9,0.6c-2.1-0.7-3.4-3-3.6-5.2c-0.1-0.7-0.1-1.4,0-2.2l0.1,0.2c0.9,2.1,2.3,4.3,4.5,4.7
	c1.7,0.1,3.4-0.5,4.6-1.6c3.3-2.7,5.2-6.6,7-10.4c1.4-2.7,2.6-5.6,3.4-8.6c0.4-1.7,0.6-3.4,1-5.1c1.9-8.3,8.4-15,9.8-23.4
	c0.1-0.6,0.1-1.2,0.1-1.8c-0.2-0.8-0.5-1.5-0.9-2.2c-0.3-0.8-0.6-1.6-0.8-2.4c2,0.7,4.1,1.8,4.8,3.8
	C692.6,360,692.6,361.2,692.2,362.3z"/>
<path class="st4" d="M677.1,348c-0.9,2.4-2.5,4.5-4.5,6.2c-2.8,2.2-6.2,3.6-9.7,4.2c-1.6,0.4-3.4,0.4-5-0.1
	c-2.2-0.8-3.8-2.8-6.1-3.5c-1.6-0.4-3.4,0-5-0.3c-3-0.4-5.2-2.7-7.6-4.5c-7.3-5.5-16.9-7.2-24.2-12.7c-0.3-0.2-0.6-0.5-0.8-0.8
	c-0.1-0.4-0.2-0.7-0.2-1.1c0-3.3,0.8-6.6,2.2-9.6c1.2-2.1,2.5-4.1,4.1-5.9c6.5-8,13.1-16.1,20.9-22.8c3.3-2.8,6.9-5.5,11-6.8
	c2.3-0.7,6.8-1.4,9.6-0.2c-0.4,0.3-0.8,0.6-1.1,1c-0.9,1.2-1.6,2.6-2,4.1c-4.2,10.9-15.5,16.6-24.5,24l-8.2,6.8
	c-1.1,0.9-2.4,2.3-1.8,3.6c0.4,0.7,1,1.2,1.7,1.5c4.8,2.4,10.4,3.3,14.3,6.9c1.4,1.3,2.8,3.1,4.8,3.2c1-0.1,2-0.3,3-0.7
	c3.1-0.8,6.3-0.2,8.8,1.8c0.7,0.7,1.5,1.2,2.4,1.7c0.7,0.2,1.5,0.2,2.3,0.1c2.1-0.2,4.4-0.3,6.3,0.6s3.5,3.2,5.7,3.3
	C674.8,348.2,676.1,347.8,677.1,348z"/>
<path class="st2" d="M585.1,212.2c-1.9,1.2-3.9,2.6-4.7,4.7c-0.6,1.7-0.3,3.7-1.1,5.4s-2.5,2.9-2.9,4.6c-0.3,1.3,0.3,2.7,0,4
	c-0.2,0.7-0.4,1.4-0.5,2.1c-0.1,1.5,1.2,2.7,2.4,3.5c5.4,3.5,12.1,4.3,18.2,2c2.7-1,5.1-2.6,7.6-3.9c2.5-1.4,5.4-2.1,8.2-2
	c1.7,0.2,3.2,0.8,4.9,1c1.7,0.3,3.4-0.2,4.6-1.4c0.5-0.7,0.9-1.5,1-2.4c1.4-5.5,0.8-11.3-0.6-16.8s-3.3-10.8-4.7-16.3
	c-1-4.1-1.8-8.2-3.4-12.1s-4.5-7.4-8.4-8.9c-0.3-0.2-0.7-0.2-1-0.1c-0.3,0.1-0.5,0.3-0.7,0.5c-3.1,3.3-5.5,7.2-6.9,11.5
	c-1.6,4.8-2,9.9-3.4,14.7c-0.6,2-1.4,4.7-3,6.2S586.9,211.1,585.1,212.2z"/>
<path class="st5" d="M622.9,229.9c-0.2,0.9-0.5,1.7-1,2.4c-1.2,1.2-2.9,1.7-4.6,1.4c-1.6-0.2-3.2-0.8-4.9-1c-2.9-0.1-5.7,0.6-8.2,2
	c-2.6,1.3-5,2.9-7.7,3.9c-3.9,1.5-8.1,1.7-12.1,0.7c-2.1-0.5-4.2-1.4-6-2.6c-1.3-0.8-2.5-2-2.4-3.5c0.1-0.7,0.3-1.4,0.5-2.1
	c0.3-1.3-0.3-2.7,0-4c0.4-1.8,2.1-3,2.9-4.7s0.5-3.6,1.1-5.4c0.8-2.1,2.8-3.5,4.7-4.7s4.2-2.2,5.7-3.7c0.2-0.2,0.4-0.5,0.5-0.7
	c1.1-1.7,1.9-3.6,2.4-5.5c1.5-4.8,1.9-9.9,3.4-14.7c1.4-4.3,3.8-8.2,6.9-11.5c0.2-0.2,0.4-0.4,0.6-0.5c0.3-0.1,0.7,0,1,0.1
	c3.9,1.5,6.7,5.1,8.4,8.9s2.4,8,3.4,12.1c1.4,5.5,3.4,10.8,4.7,16.3S624.2,224.4,622.9,229.9z"/>
<path class="st4" d="M652.6,108c-9.7,3.1-20.2-1.6-24.4-11c0.1-0.9,0.2-1.9,0.4-2.8c1-4.6,5.3-2.9,8.7-1.7c4.1,1.3,8,3,11.8,5.1
	c1.1,0.6,2.1,1.4,2.9,2.5C653.4,102.3,652.8,105.2,652.6,108z"/>
<circle class="st1" cx="646.6" cy="87.9" r="20"/>
<path class="st4" d="M700.8,237.4c0,1.7-2.2,2.2-3.9,2.1c-6-0.4-11.9-2-17.8-1.5c-7.5,0.7-14.4,4.8-21.9,5.2
	c-2.9,0.1-5.8-0.3-8.7,0.2c-3.7,0.7-7,2.9-10.8,3.3c-3.3,0.3-6.5-1-9.8-0.8c-2.3,0.1-4.5,0.8-6.5,1.9c0.2-2.1,1.2-4.1,2.7-5.6
	c2.4-2.4,5.8-1.7,9.1-2.3c3.3-0.7,6.5-1.7,9.6-3.1c8.7-3.4,17.8-5.5,27.1-6.3c9.3-0.7,18.7,0.7,27.4,4.3c1.3,0.5,2.4,1.2,3.5,2
	C700.8,237,700.8,237.2,700.8,237.4z"/>
<path class="st6" d="M637.3,124.4l-8.1-3l-3.4-1.3c-1.4-0.6-2.9-1-4.4-1.2c-3.9-0.3-7.6,2.3-9.7,5.6s-2.9,7.3-3.5,11.2
	c-0.9,5.3-1.7,10.6-2.3,15.9c-0.7,4.8-1,9.7-1,14.5c0.2,12.4,2.8,24.6,5.7,36.6c1.4,5.3,2.5,10.8,3.2,16.2c0.2,2.3,0.3,4.5,0.6,6.8
	c0.3,2.5,0.7,5.1,1.1,7.6l2.4,14.4c3-2.1,6.4-4,10.1-4.1c3.3-0.1,6.5,1.1,9.8,0.8c3.8-0.3,7.1-2.6,10.8-3.2c2.9-0.5,5.8-0.1,8.7-0.2
	c7.5-0.4,14.4-4.5,21.9-5.2c6-0.5,11.9,1.1,17.8,1.5c1.7,0.1,3.9-0.4,3.9-2.1c0-1.2-1.2-1.9-2.2-2.5c-4.8-2.9-9.3-6.1-13.5-9.7
	c-3.9-3.1-7.9-6.3-10.7-10.5c-6.5-10.1-4.3-23.9-9.9-34.6c-4.5-8.7,0-20.1,0-29.9c0-4.9,0-9.8-1.2-14.6c-0.7-2.7-1.6-5.3-2.7-7.8
	l-3.9-9.9c-0.1-0.3-0.2-0.5-0.5-0.8c-0.3-0.2-0.6-0.3-0.9-0.3c-2.3-0.1-4.6,0.6-6.5,2.1c-1.8,1.5-3,3.6-4.8,5.2
	C642.3,123.8,639.8,125.3,637.3,124.4z"/>
<linearGradient id="SVGID_2_" gradientUnits="userSpaceOnUse" x1="640.3746" y1="177.375" x2="699.6116" y2="177.375">
	<stop  offset="0" style="stop-color:#28084C"/>
	<stop  offset="4.162306e-02" style="stop-color:#28084C"/>
	<stop  offset="1" style="stop-color:#28084C"/>
</linearGradient>
<path class="st7" d="M650.4,118.8c0.6-2.7,1.3-5.6,3.2-7.7s5.2-3.3,7.5-1.7c2.7,1.7,2.8,5.8,5.1,8c2,1.9,5,2.1,7.7,2.3
	c4.9,0.4,9.7,1.6,14.3,3.4c0.9,0.3,1.7,0.8,2.4,1.4c1.2,1.4,1,3.6,1.6,5.4c0.8,2.3,3.2,3.7,4.1,6c1,2.5,0,5.3-0.8,7.9
	c-1.5,4.6-2.5,9.5-3.9,14.1s-3.6,9.3-7,12.8c-1.5,1.6-3.8,3-5.8,2.1l-0.8,5.5c-0.2,1.2-0.2,2.4,0,3.5c0.2,1.2,1.1,2.2,2.3,2.5
	c0.2,0.9,1.1,1.3,1.8,1.7c2.3,1.6,2.9,4.7,1.3,6.9c0,0,0,0,0,0.1c-0.6,0.9-1.6,1.5-1.9,2.5c-0.5,1.5,0.6,3,1.9,3.8s2.8,1.2,4.2,1.9
	c2.7,1.6,4.2,4.7,5.2,7.7c0.7,2.3,1.3,4.8,3,6.4c0.7,0.6,1.5,1.1,2.1,1.8c1.1,1.3,1.7,2.9,1.8,4.6c0.3,2.1-0.2,4.2-1.3,6
	c-2,2.9-5.7,3.7-9,5c-5.3,2.2-9.7,6.1-14.4,9.4c-1.9,1.5-4.2,2.6-6.5,3.1c-3.2,0.4-6.4-1-9.7-1.1c-2,0-3.9,0.3-5.8,0.8l-6,1.3
	c0.3-4.6-2.2-9.3-3.7-13.7c-2.7-8.3-3.2-17.3-2.6-26s2.4-17.4,4.2-25.9c1.2-6,1.1-12.3,3-18.1c1.8-5.6,4.3-11,5.2-16.8
	C654.6,136.1,648.2,128.1,650.4,118.8z"/>
<linearGradient id="SVGID_3_" gradientUnits="userSpaceOnUse" x1="680.6544" y1="168.143" x2="710.7021" y2="168.143">
	<stop  offset="0" style="stop-color:#28084C"/>
	<stop  offset="4.162306e-02" style="stop-color:#28084C"/>
	<stop  offset="1" style="stop-color:#28084C"/>
</linearGradient>
<path class="st8" d="M695.9,137.3c0.6,1,0.9,2.1,1.2,3.2c0.5,1.8,1.3,3.4,2.5,4.8c1,0.9,1.9,1.9,2.7,3c0.9,1.7,0.6,3.9,1,5.8
	c0.5,2.1,2,3.9,2.2,6c0,0.6,0.1,1.2,0.2,1.8c0.7,2.4,4.2,3,5,5.4c0.5,1.6-0.4,3.3-0.2,4.9c0.1,0.5,0.2,1,0.1,1.6
	c-0.2,0.6-0.6,1.1-1.1,1.5c-3.3,3.2-5.6,7.2-6.6,11.7c-1,4.4-1.5,9-1.5,13.5l-3.9-5.2c-0.4-0.6-0.9-1.2-1.6-1.6
	c-0.5-0.3-1.1-0.5-1.6-0.8c-1.5-0.8-2.1-2.6-2.6-4.2c-1.6-4.4-4-8.5-7-12.1c-1.6-1.9-3.4-3.8-3.8-6.2c-0.1-1.1,0-2.2,0.2-3.3
	c1-6.5,2.1-13.3,5.3-19.1c1.5-2.7,3.4-5.2,4.8-7.9C692,138.2,693.3,133.5,695.9,137.3z"/>
<linearGradient id="SVGID_4_" gradientUnits="userSpaceOnUse" x1="541.1182" y1="110.15" x2="597.4903" y2="110.15">
	<stop  offset="0" style="stop-color:#28084C"/>
	<stop  offset="4.162306e-02" style="stop-color:#28084C"/>
	<stop  offset="1" style="stop-color:#28084C"/>
</linearGradient>
<path class="st9" d="M597.2,143.5c0,0.8-0.2,1.7-0.6,2.4c-0.8,0.9-2,1.3-3.2,1c-1.1-0.3-2.2-0.8-3.2-1.5c-2.8-1.8-5.6-3.5-8.4-5.3
	c-1.6-0.9-3.1-2-4.5-3.1c-2.2-1.9-4.2-3.9-5.9-6.2c-4.9-6-9.2-12.5-14.6-18c-1.5-1.5-3-2.9-4.4-4.5c-1.9-2.3-3.7-4.7-5.3-7.2
	c-1.6-2.3-3.2-4.9-2.9-7.6c0.2-1.6,0.9-3,1.1-4.5s-0.4-3.4-1.9-3.9c-0.2,0-0.4-0.1-0.5-0.1c-0.3,0-0.6-0.1-0.9-0.2
	c-1.4-0.6-1.2-2.7-0.2-3.9s2.5-1.8,3.4-3c0.4-0.7,0.9-1.4,1.4-2.1c0.7-0.6,1.5-1,2.3-1.2c5.8-1.7,11.9-1.9,17.8-0.7
	c1,0.2,2.1,0.6,2.4,1.6c0.1,0.5,0.1,1,0,1.4c-0.4,2-0.7,4-0.8,6c0,0.4,0,0.8,0.1,1.3c0.5,4.2,3.2,7.8,5.9,11.1
	c3.2,3.9,6.4,7.9,9.7,11.8c1.8,2.3,3.7,4.4,5.8,6.2c2,1.7,4.6,3,6.2,5.1c1.3,1.7,0.9,4.1,1,6.1C597.6,131,597.6,137.3,597.2,143.5z"
	/>
<path class="st1" d="M724.2,185.3c1-1,1.9-2,2.7-3.1c0.8-1.4,1.5-2.9,2-4.5l5.8-16.5c0.9-2.6,1.8-5.2,3-7.7c1.2-2.7,2.6-5.4,3.9-8
	c3.4-6.9,6-14.2,7.8-21.8c0.3-1,0.4-2.1,0.3-3.2c-0.3-1.7-1.6-3.1-2.8-4.3c-1.3-1.4-2.7-2.5-4.3-3.5c-1.6-1-3.5-1.3-5.3-0.9
	c-2.6,0.8-4.2,3.4-4.8,6s-0.4,5.3-0.6,8c-0.4,3.8-1.7,7.5-2,11.4c-0.2,2.2,0,4.5-0.3,6.7c-0.5,2.9-1.5,5.7-3,8.3
	c-3.2,6.1-7.6,11.5-12.9,15.9c-1.4,1.1-2.8,2.3-3.9,3.7c-0.9,1.4-1.6,3-1.9,4.7c-0.7,2.5-0.4,5.2,0.8,7.6c1.6,2.8,4.8,4,7.8,4.6
	C720.5,189.5,721.4,188.1,724.2,185.3z"/>
<linearGradient id="SVGID_5_" gradientUnits="userSpaceOnUse" x1="621.9714" y1="76.028" x2="673.7068" y2="76.028">
	<stop  offset="0" style="stop-color:#28084C"/>
	<stop  offset="4.162306e-02" style="stop-color:#28084C"/>
	<stop  offset="1" style="stop-color:#28084C"/>
</linearGradient>
<path class="st10" d="M646.7,58.9c1.8-3.3,5.3-5.2,9.1-4.9c3.8,0.7,6.8,3.4,7.9,7.1c0.5,1.5,0.7,3.1,1.5,4.4
	c1.2,1.9,3.5,2.5,5.3,3.9c2.1,1.9,3.3,4.6,3.4,7.4c0.1,2.9-0.4,5.7-1.3,8.4c-0.4,1.1-0.7,2.3-1,3.5c-0.2,1.2-0.2,2.3-0.4,3.5
	c-0.4,3-2.1,5.8-4.6,7.6c-0.4,0.3-0.8,0.4-1.2,0.5c-0.8-0.1-1.3-1-1.5-1.8c-1.6-4.6-1.2-10.2-4.1-13.9c-1.3-1.5-2.9-2.7-4.7-3.5
	c-0.7-0.5-1.6-0.8-2.4-0.9c-1.3,0.1-2.5,0.5-3.5,1.3c-2.1,1.4-4.5,2.5-6.9,3.1c-2.5,0.6-5.1,0-7.2-1.5c-1.4-1.1-2.4-2.9-3.9-3.7
	s-3.1-0.8-4.6-1.5c-3.5-1.5-5.1-5.5-3.6-9c0.2-0.5,0.5-1,0.9-1.5c1-1.2,2.5-1.9,3.4-3.2c1.2-1.7,1-4.1,1.6-6.1
	c0.7-2.6,2.6-4.8,5.1-5.8c2.5-0.8,5.2-0.3,7.1,1.5c1,0.9,1.8,2.1,2.8,3c2,1.9,4.8,2.6,7.4,2"/>
<path class="st4" d="M663.1,206.1c-1.2,1.1-1.6,2.7-1.1,4.2c0.2,0.5,10.5-1.5,11.6-1.7c2.7-0.4,7.5-0.2,9.3-2.7
	c3.3-4.4-6.8-3.4-8.7-3.3C670.8,203,665.8,203.5,663.1,206.1z"/>
<path class="st2" d="M569.2,77.1c-0.4,2-0.7,4-0.8,6c-3,0.6-6.1-0.4-9-1.4l-8.3-2.8c-1-0.7-2.4-0.4-3.2,0.6c-1.3,1.4-3.2,4-5,5.5
	c-0.3,0-0.6-0.1-0.9-0.2c-1.4-0.6-1.2-2.7-0.2-3.9s2.5-1.8,3.4-3c0.4-0.7,0.9-1.4,1.4-2.1c0.7-0.6,1.5-1,2.3-1.2
	c5.8-1.7,11.9-1.9,17.8-0.7c1,0.2,2.1,0.6,2.4,1.6C569.4,76.1,569.4,76.7,569.2,77.1z"/>
<path class="st4" d="M569.2,77.1c-0.4,2-0.7,4-0.8,6c-3,0.6-6.1-0.4-9-1.4l-8.3-2.8c-1-0.7-2.4-0.4-3.2,0.6c-1.3,1.4-3.2,4-5,5.5
	c-0.3,0-0.6-0.1-0.9-0.2c-1.4-0.6-1.2-2.7-0.2-3.9s2.5-1.8,3.4-3c0.4-0.7,0.9-1.4,1.4-2.1c0.7-0.6,1.5-1,2.3-1.2
	c5.8-1.7,11.9-1.9,17.8-0.7c1,0.2,2.1,0.6,2.4,1.6C569.4,76.1,569.4,76.7,569.2,77.1z"/>
<path class="st4" d="M644.9,267c1.4,0.5,3,1.2,3.5,2.6l-11.6-2.9l-6-1.5c-1.1-0.3-4.9-0.6-5.6-1.4c-1-1.2,2.5-0.4,3.2-0.3
	c1.9,0.3,3.9,0.6,5.8,0.9C637.9,265,641.4,266.1,644.9,267z"/>
<path class="st4" d="M649.4,277.2c-1-0.7-3.9-0.6-5.1-0.9c-1.8-0.4-3.6-1-5.3-1.5c-3.6-1.2-7.2-2.5-10.8-3.4c-0.7-0.1-3-0.2-2.9-1
	s2.3-1.2,2.9-1.2c3.3-0.2,7.3,1.3,10.4,2.4C642.3,273,646,274.9,649.4,277.2z"/>
<path class="st4" d="M642,257.8c-3.7-1-7-3.3-10.8-3.7c-1,0-2-0.3-2.8-0.8c-0.4-0.4-0.8-1-0.9-1.6c2.5-0.1,5.5,0.9,7.8,2
	c1.3,0.5,2.5,1.2,3.6,1.9C639.9,256.1,641.1,257.6,642,257.8z"/>
<linearGradient id="SVGID_6_" gradientUnits="userSpaceOnUse" x1="699.5992" y1="185.143" x2="724.2543" y2="185.143">
	<stop  offset="0" style="stop-color:#28084C"/>
	<stop  offset="4.162306e-02" style="stop-color:#28084C"/>
	<stop  offset="1" style="stop-color:#28084C"/>
</linearGradient>
<path class="st11" d="M712,168.3c-1.3,8.6,3.9,16.8,12.3,19.3c-0.5,2.4-2.9,3.7-4.7,5.4c-2.4,2.4-3.7,5.9-6.6,7.7
	c-3.2,2-7.3,1.2-11,0.4c-0.3,0-0.6-0.2-0.9-0.5c-0.1-0.1-0.1-0.3-0.2-0.4c-1.2-4.4-2-9.2-0.8-13.6c1-3.8,3.4-7,5.3-10.3
	S707.6,169.4,712,168.3z"/>
<linearGradient id="SVGID_7_" gradientUnits="userSpaceOnUse" x1="575.9689" y1="175.0865" x2="628.1543" y2="175.0865">
	<stop  offset="0" style="stop-color:#28084C"/>
	<stop  offset="4.162306e-02" style="stop-color:#28084C"/>
	<stop  offset="1" style="stop-color:#28084C"/>
</linearGradient>
<path class="st12" d="M622.6,111c-3.9,0.3-7.6,1.4-11,3.4c-2.2,1.3-4.5,3-7.1,2.7c-1.5-0.2-3-1-4.5-0.6c-0.8,0.3-1.6,0.8-2.3,1.4
	c-0.7,0.6-1.7,0.7-2.5,0.4l-1,13.8c-0.4,5.3-0.8,10.6,0.5,15.8c0.7,2.6,2.1,5,2.2,7.7s-0.1,5.4,0.1,8.1c0.2,2.5,0.7,4.9,0.9,7.4
	c0.3,4.7-0.9,9.4-2,13.9c-1.7,6.7-2.7,13.6-6,19.7c-0.9,1.7-2,3.4-2,5.3c0,0.2,0,0.5,0.1,0.7c-1,0.5-1.9,1.1-2.8,1.6
	c-1.9,1.2-3.9,2.6-4.7,4.7c-0.6,1.7-0.3,3.7-1.1,5.4s-2.5,2.9-2.9,4.7c-0.3,1.3,0.2,2.7,0,4c-0.2,0.7-0.4,1.4-0.5,2.1
	c-0.1,1.5,1.2,2.7,2.4,3.5c1.8,1.2,3.9,2.1,6,2.6l6-23.7l0,0c5.4-10.1,10-20.6,13.5-31.5c1-3.6,2.3-7,3.9-10.4
	c1.1-1.9,2.1-3.9,3-5.9c0.9-2.5,1-5.2,1.4-7.9c0.5-3.1,1.3-6.2,2.3-9.1c1.1-3.2,2.3-6.4,2.5-9.8c0.3-4.8-1.4-9.9,0.4-14.4
	c0.8-1.7,1.8-3.2,3-4.6c2.6-3.2,4.9-6.5,7.5-9.6C626.8,111,624.6,110.8,622.6,111z"/>
<g class="st13">
	<path d="M650.8,55.7l-1.2,0.1l-0.1,0.1C649.8,55.8,650.3,55.8,650.8,55.7z"/>
	<path d="M673.6,76.4c-0.2,2-0.6,3.9-1.3,5.8c-0.4,1.1-0.7,2.3-1,3.5c-0.2,1.2-0.2,2.3-0.4,3.5c-0.4,3-2.1,5.8-4.6,7.6
		c-0.4,0.3-0.8,0.4-1.2,0.5c-0.8-0.1-1.3-1-1.5-1.8c-1.6-4.6-1.2-10.2-4.1-13.9c-1.3-1.5-2.9-2.7-4.7-3.5c-0.7-0.5-1.6-0.8-2.4-0.9
		c-1.3,0.1-2.5,0.5-3.5,1.3c-2.1,1.4-4.5,2.5-6.9,3.1c-2.5,0.6-5.1,0-7.2-1.5c-1.4-1.1-2.4-2.9-3.9-3.7s-3.1-0.8-4.6-1.5
		c-1.9-0.8-3.3-2.5-3.9-4.5c0-0.1-0.1-0.3-0.1-0.4c-0.2,1.1-0.2,2.3,0.1,3.4c0.6,2,2,3.6,3.9,4.5c1.5,0.6,3.2,0.6,4.6,1.5
		s2.5,2.6,3.9,3.7c2,1.6,4.7,2.1,7.2,1.5c2.5-0.6,4.8-1.6,6.9-3.1c1-0.8,2.2-1.2,3.5-1.3c0.9,0.1,1.7,0.4,2.4,0.9
		c1.8,0.9,3.4,2.1,4.7,3.6c2.9,3.7,2.5,9.3,4.1,13.9c0.3,0.8,0.8,1.7,1.5,1.8c0.5,0,0.9-0.2,1.3-0.5c2.5-1.8,4.2-4.5,4.6-7.6
		c0.2-1.2,0.2-2.3,0.4-3.5c0.3-1.2,0.6-2.4,1-3.5c1-2.7,1.4-5.5,1.3-8.4C673.7,76.7,673.7,76.6,673.6,76.4z"/>
</g>
<linearGradient id="SVGID_8_" gradientUnits="userSpaceOnUse" x1="39.9569" y1="26.2386" x2="262.221" y2="26.2386" gradientTransform="matrix(1 0 0 -1 -28 345.4258)">
	<stop  offset="0" style="stop-color:#808080;stop-opacity:0.25"/>
	<stop  offset="0.54" style="stop-color:#808080;stop-opacity:0.12"/>
	<stop  offset="1" style="stop-color:#808080;stop-opacity:0.1"/>
</linearGradient>
<path class="st14" d="M233.2,250.2c-2.3-0.8-15.9-11.5-16.9-16.4s7.2-50.2,7.2-50.2s-0.8,0-2-0.1v-0.7l1.7-59.6c0,0,6.9-40-6.2-37.7
	s-4.9,37.7-4.9,37.7s-1.5,17.9-2.5,23.3c-1,5.2-5.6,26.3-2.5,32.9c0.1,0.2,0.2,0.5,0.4,0.7l0,0c0,0,0.5,22.5-5.1,25.6
	c-5.4,2.9-7.6,17.7-7.8,19l-0.3-0.1l0,0c-1.6-1-3-2.3-4.2-3.8c-0.1-0.1-0.2-0.3-0.3-0.5c7.6-8.6,7.4-21.6-0.6-29.9
	c-1.8-1.9-3.9-3.4-6.2-4.5c-0.1-1.9-0.5-3.8-1.3-5.5c-2.6-5.6-17-12.8-27.2-13c-4.7-0.1-8.6,1.2-10,4.9c-0.7,1.9-0.5,4-0.8,5.9
	c-0.6,4-3.2,7.1-6.5,9.6c-1.3-1.5-2.8-2.9-4.3-4.1c-3.3-2.6-10-11-10-11s-20.8-21.5-22.3-27.4S78.2,103.8,73.6,110
	s15.9,33.1,15.9,33.1s3.9,9.8,6.9,13.1s26,36.7,26,36.7l1.1,2.3c-4.9,2.6-9.3,5.8-10.9,10.9c-2.3,7.5,2.7,15,6.2,22
	c6.8,13.7,7.8,31.1-1,43.6c-7.8,11-21.4,16.3-34.2,20.8c6.1,4.8,13.8,7.4,21.6,7.2c-2.9,8.5-13.4,11.3-22.2,12.9
	c4.7,4.5,11.3,6.1,17.7,7.1c3.1,0.5,6.3,0.8,9.5,0.8h0.8l0.8-0.1c1.1-0.1,2.2-0.2,3.2-0.4c4.6-0.9,9.1-3.5,11.5-7.5
	c2-3.5,2.7-8.2,6.3-10c0.9-0.4,2-0.7,3-0.7h-0.1c0.7,0,1.4,0,2.1,0l15.1,0.2c0.6,0,1.3,0,1.9,0c4.3-0.1,8.8-0.8,11-4.4
	c0.9-1.7,1.4-3.6,1.4-5.5c0.3-4.8,0-9.7,0.1-14.5c1.3,8.8,2.6,22.5-0.6,27.5c-2.6,3.8-5.8,7.3-9.4,10.2c-0.9,0.8-1.7,1.6-2.5,2.5
	c-0.5,0.3-0.8,0.5-0.8,0.5l-0.3,0.9c-1.1,1.7-2,3.6-2.4,5.7c-0.2,0.5-0.2,1.1-0.2,1.6c0.4,0.7-2.5,3.6-1.7,4.9
	c-7.1,8.3-8.5,21-8.5,21l-13,19.7c-6.7,17.5-16.7,19.3-16.7,19.3s-23.5-15.8-24.1-16.5s-9.6-4.6-9.6-4.6c-1.1-1.9-2.7-3.3-4.6-4.2
	c-3.1-1.3-3.3-6-3.3-6c-0.4-11.2-6.9-12-6.9-12c-5.3-0.5-9.3,0.5-12.4,2.2l-0.9,0.1c-4.5,0.4-10,0.8-16,1.2
	c-16.7,1.1-20.7,11.9-20.7,11.9s-2.1,2.3,0.6,4.8s19.9,0,20.6-0.1c-1.3,0.1-2.6,0.1-3.9-0.3c2.7-0.1,6.4-0.2,9.6-0.2h0.8
	c-0.2,1.7-0.3,3.4-0.3,5.1c0,3.2,8.9,5.2,8.9,5.2l26.9,24c0,0,16.9,7.6,27.7,18.5s20.3,1.5,20.3,1.5c11.4-2.8,44.2-42.5,44.3-42.5
	l0,0c0,1.2,0.7,39.8,2,47.5l0,0c0.1,0.4,0.1,0.8,0.3,1.2c1.5,3.3-0.5,12.4-1.4,16.3c-0.6,3.2-0.8,6.5-0.6,9.7c0,0-12.3,47-11.3,51.1
	s-6.7,23.3-6.7,23.3v16l1.3-0.1c-0.2,0.3-0.3,0.5-0.5,0.8l-0.1,0.2c0,0,8.2,1.8,13.7,1.3s15,4.2,15,4.2s3.2,1.5,13.1,2.2
	s9.9-4.4,9.9-4.4c-1.1-6.8-16.7-9.1-17.2-9.2c-1.3-0.8-2.4-1.7-3.4-2.4l-0.2-0.2c0.1-0.1,0.1-0.3,0.2-0.5c1.7-6.8-7.6-9.8-7.6-9.8
	v-1.7c6-3.1,7.2-24.2,7.2-24.2s9-26.1,10.3-30.5s0-10.9,0-10.9l0.9-5.6c0,0,1.9-3.8,1.9-4.6c0.2-2,1-3.8,2.2-5.4
	c1.4-1.7-1.5-5.6-1.5-5.6l2.6-6.7v-7.3l6-26.5c0,0,6.3-30.9,4.1-41s2.6-15.2,2.6-15.2c-0.4,0.2-0.9,0.4-1.3,0.6
	c0.6-1.4,1.1-2.8,1.5-4.3l13.5,1.7v0.2h4.9c0,0-1.5-19-1.5-26.7s5.2-35.2,5.2-35.2S235.5,251,233.2,250.2z M173.3,228
	c0,0.8-0.1,1.5-0.1,2.3l-0.3,0.4l-0.5-0.4l-0.6,1l-0.2,0.1c-1.3-0.7-2-4.6-3-3.7l-0.1,0.1c-0.2-0.2-0.4-0.3-0.6-0.1l-0.2,0.2
	c0-0.3,0-0.6,0-0.9c1.8,0.5,3.7,0.7,5.6,0.7C173.3,227.8,173.3,227.9,173.3,228z M218.2,316.5h0.3l-0.5,1.3
	C218,317.3,218.1,316.9,218.2,316.5z M168.9,543.3l-1.8-0.5l1-0.2L168.9,543.3l0.2,0.1L168.9,543.3z M187.7,540.6
	c-0.6-0.3-1.2-0.7-1.8-1.1C186,539.6,186.8,540,187.7,540.6z"/>
<polygon class="st15" points="224.8,297.6 212.7,329.2 215.6,329.2 204.2,338.3 224.8,340.8 "/>
<polygon class="st16" points="224.8,297.6 212.7,329.2 209.6,328.4 204.2,338.3 224.8,340.8 "/>
<polygon class="st15" points="205.8,317.8 224.8,317.8 231.8,260.5 205.8,260.5 "/>
<polygon class="st16" points="205.8,317.8 224.8,317.8 231.8,260.5 205.8,260.5 "/>
<path class="st1" d="M168.7,274l4.1-0.7l9.4-1.6c0,0,28.3-6.4,34.1-6.9c3.5-0.5,7-1.5,10.2-2.9c1.5-0.7,2.5-1.2,2.5-1.2l-10.2-18.6
	l-15.8-11.7c0,0-10-2.1-14.2-8c-1.9-2.5-2.4-5.9-1.3-8.9c2.6-8-15.4,7.6-15.4,7.6s0.2,3.8,0,8.5c0,0.9-0.1,1.9-0.2,2.9
	c0,0.7-0.1,1.3-0.2,2c-0.4,4.8-1.3,9.6-3.1,12.6C164.4,254.4,168.7,274,168.7,274z"/>
<path class="st4" d="M172.2,230.2h0.4c0.7,0,1.3-1.5,2-1.6c5.6-0.5,10.8-1.7,14.3-5.7c-1.9-2.5-2.4-5.9-1.3-8.9
	c2.6-8-15.4,7.6-15.4,7.6S172.4,225.4,172.2,230.2z"/>
<path class="st1" d="M150.3,207.5c0,12.1,9.8,21.9,21.9,21.9c0,0,0,0,0,0c0.7,0,1.4,0,2.1-0.1c12-1.2,20.9-11.9,19.7-24
	s-11.9-20.9-24-19.7C158.8,186.8,150.3,196.2,150.3,207.5L150.3,207.5z"/>
<linearGradient id="SVGID_9_" gradientUnits="userSpaceOnUse" x1="82.5544" y1="245.5081" x2="181.6999" y2="245.5081">
	<stop  offset="0" style="stop-color:#28084C"/>
	<stop  offset="4.162306e-02" style="stop-color:#28084C"/>
	<stop  offset="1" style="stop-color:#28084C"/>
</linearGradient>
<path class="st17" d="M143.5,174.2c-0.7,1.9-0.5,3.9-0.8,5.9c-1.1,7.1-8.3,11.4-14.8,14.4c-6.5,3-13.9,6.5-16,13.4
	c-2.3,7.4,2.7,14.9,6.2,21.9c6.7,13.6,7.7,30.9-1,43.3c-7.7,11-21.2,16.2-33.9,20.8c6.1,4.8,13.7,7.3,21.5,7.1
	c-2.9,8.5-13.3,11.3-22.1,12.8c4.6,4.5,11.3,6.1,17.6,7.1c4.6,0.7,9.4,1.2,14,0.3s9-3.4,11.4-7.5c2-3.5,2.7-8.2,6.3-10
	c1.6-0.6,3.4-0.9,5.1-0.8l15,0.2c4.7,0,10.2-0.4,12.6-4.3c0.9-1.7,1.4-3.6,1.4-5.5c0.6-9.8-1.2-20.2,2.8-29.2c1.2-2.7-6.6-7-5.8-9.9
	c2.8-9.9,3.5-17.6,3.5-27.9c0-8,5.2-14.8,9.4-21.5s7.8-15.2,4.5-22.4C176.6,174.3,148,162.6,143.5,174.2z"/>
<path class="st1" d="M163.5,540.4l3.8,2.5l0.6,0.4l0.1,0.1l4.5,3l10.6,1.8l9.3-0.6c0,0,2.7-5.6-1.5-5.5c-1.3-0.1-2.7-0.4-3.8-1.1
	l-0.6-0.3l0,0c-0.6-0.3-1.2-0.7-1.8-1.1l0,0c-1.2-0.8-2.4-1.7-3.4-2.4c-1.4-1.1-2.3-1.9-2.3-1.9L163.5,540.4z"/>
<path class="st4" d="M167.4,542.9l0.6,0.4l0.1,0.1l4.5,3l10.6,1.8l9.3-0.6c0,0,2.7-5.6-1.5-5.5c-1.3-0.1-2.7-0.4-3.8-1.1
	c0.7,0.6,1.4,1.2,1.4,1.7c0.2,1.4-6.9,4-6.9,4l-9.9-2.6c0,0-1.7-0.5-4-1.1l-0.2-0.1L167.4,542.9z"/>
<path class="st2" d="M150.4,545.4c0,0,8.1,1.8,13.6,1.3s14.9,4.2,14.9,4.2s3.2,1.5,13,2.1s9.8-4.3,9.8-4.3c-1.1-6.8-16.6-9-17.1-9.1
	l0,0l0,0l0,0c0.2,0.1,1,0.5,1.8,1.1l0,0c1.1,0.7,2.3,1.7,2.4,2.4c0.2,1.4-6.9,4-6.9,4l-9.9-2.6c0,0-1.7-0.5-4-1.1h-0.2
	c-3.4-0.9-6.9-1.7-10.4-2.1c-4.3-0.5-6.5,3.2-6.9,4C150.4,545.2,150.4,545.3,150.4,545.4z"/>
<path class="st1" d="M21.9,365.5l4.3,3.3c0,0,1.3-0.1,3.1-0.1H30c2.7-0.1,6.4-0.2,9.6-0.2c2-0.1,4.1,0,6.1,0.3
	c2.2,0.8,6-12.4,6-12.4l-4.3-1l-1.4-0.3l-1-0.2l-3.5-0.8l-10.7,1.2l-7.5,4.8L21.9,365.5z"/>
<path class="st4" d="M21.9,365.5l4.3,3.3c0,0,1.3-0.1,3.1-0.1c-0.9-0.3-1.6-1-2-1.8c-2.8-7.8,11.1-11.1,11.1-11.1l6.5-0.3l1.3-0.1h1
	l-1.4-0.3l-1-0.2l-3.5-0.8l-10.7,1.2l-7.5,4.8L21.9,365.5z"/>
<path class="st2" d="M13.4,369c2.6,2.4,19.8,0,20.5-0.1c-1.3,0.1-2.6,0.1-3.9-0.3c-1.3-0.2-2.4-1-3-2.2
	c-2.8-7.8,11.1-11.1,11.1-11.1l6.5-0.3l1.2-0.1l15.7-0.7l0.8-4.3c0,0-5.1,0.5-13.1,1.1c-4.5,0.4-10,0.8-15.9,1.2
	c-16.6,1.1-20.5,11.8-20.5,11.8S10.7,366.6,13.4,369z"/>
<path class="st1" d="M205.8,181.3c0.1,0.2,0.2,0.5,0.4,0.7l3.8,5.6l9.9,1l0.1-3.9l1.7-59.3c0,0,6.9-39.8-6.1-37.5
	s-4.8,37.5-4.8,37.5s-1.5,17.8-2.5,23.2C207.3,153.8,202.7,174.8,205.8,181.3z"/>
<path class="st1" d="M183.5,328.6l2.8,4.8l6.3,10.8c0,0,11.5,4.2,14.4,1c1.6-1.8,3.4-7.9,4.6-13c1-4.2,1.7-7.7,1.7-7.7L183.5,328.6z
	"/>
<path class="st4" d="M183.5,328.6l2.8,4.8c0.2-0.2,0.3-0.3,0.5-0.5c3.2-4.1,17.3-0.9,24.8-0.6c1-4.2,1.7-7.7,1.7-7.7L183.5,328.6z"
	/>
<path class="st4" d="M39.5,368.5c2-0.1,4.1,0,6.1,0.3c2.2,0.8,6-12.4,6-12.4l-5.8-1.4l15.7-0.7l0.8-4.3c0,0-5.1,0.5-13.1,1.1
	c-1.7,1-3.1,2.2-4.4,3.7l-0.2,0.3C41.2,359.3,40,364.6,39.5,368.5z"/>
<path class="st4" d="M163.5,540.4l4.4,2.9c6.6-1.2,12.6-3.1,13.3-6c0,0,0-0.1,0-0.1c-1.4-1.1-2.3-1.9-2.3-1.9L163.5,540.4z"/>
<path class="st4" d="M150.5,545.2c5.8-0.3,11.6-0.9,17.3-1.9c-3.4-0.9-6.9-1.7-10.4-2.2C153.1,540.7,150.9,544.3,150.5,545.2z"/>
<path class="st3" d="M40,373.6c0,3.2,8.8,5.2,8.8,5.2l26.8,23.8c0,0,16.8,7.5,27.5,18.3s20.1,1.5,20.1,1.5c11.3-2.8,44-42.3,44-42.3
	s0.8,45.1,2.3,48.4s-0.5,12.4-1.4,16.2c-0.6,3.2-0.8,6.4-0.6,9.7c0,0-12.2,46.8-11.2,50.8s-6.6,23.2-6.6,23.2v15.9
	c0,0,30-1.2,31.6-7.9s-7.5-9.7-7.5-9.7v-1.7c6-3.1,7.1-24.1,7.1-24.1s8.9-26,10.2-30.3s0-10.8,0-10.8l0.9-5.6c0,0,1.9-3.8,1.9-4.6
	c0.2-1.9,1-3.8,2.2-5.3c1.4-1.7-1.5-5.6-1.5-5.6l2.5-6.6v-7.3l6-26.4c0,0,6.2-30.7,4.1-40.8s2.5-15.2,2.5-15.2
	c-10.2,5.4-15.4-6.6-17.1-11.7c-0.4-1.3-0.6-2.2-0.6-2.2s-14-5.2-27.1-3.9c-2.7,0.2-5.3,0.8-7.8,1.7c-14.5,5.2-16.8,26.9-16.8,26.9
	l-12.9,19.6c-6.6,17.5-16.6,19.2-16.6,19.2s-23.3-15.7-24-16.4s-9.6-4.6-9.6-4.6c-1-1.8-2.7-3.3-4.6-4.2c-3.1-1.3-3.3-6-3.3-6
	c-0.4-11.1-6.9-12-6.9-12C39.9,347.1,40,370.4,40,373.6z"/>
<rect x="169.8" y="268.6" class="st15" width="13.8" height="42.7"/>
<rect x="169.8" y="268.6" class="st16" width="13.8" height="42.7"/>
<path class="st4" d="M205.8,181.3C205.8,181.3,205.8,181.3,205.8,181.3c0.1,0.3,0.2,0.6,0.4,0.8l3.8,5.6l9.9,1l0.1-3.9
	C217,184.4,209.9,183.6,205.8,181.3z"/>
<path class="st15" d="M206.2,182c0,0,0.5,22.4-5.1,25.5s-7.8,19-7.8,19s17,11.2,20.8,16.1s12.5,16.6,10.7,19.4s4.3,15.5,4.3,15.5
	s-11.2,22.9-8.7,31.6s2.8,31.6,2.8,31.6h4.9c0,0-1.5-18.9-1.5-26.5s5.1-34.9,5.1-34.9s2.3-26.8,0-27.5s-15.8-11.5-16.8-16.3
	s7.1-50,7.1-50S211.6,185.1,206.2,182z"/>
<path class="st4" d="M169.5,264.6c0.5,3.1,1.6,6.1,3.3,8.7l9.4-1.6c0,0,28.3-6.4,34.1-6.9c3.5-0.5,7-1.5,10.2-2.9
	c-2.2-7.9-6.6-15.1-12.6-20.7l-3.6-3.3c-5.3-4.9-11.4-8.8-18.1-11.6c0.4,0.4,30.1,25.7,23.6,30.7c-6.5,5-24-7.1-24-7.1L172,232.7
	l-0.7-0.6l-1.1,1.8c0.6,0.2,1.2,0.5,1.7,0.8c6.8,3.7,11.8,10,14,17.4C189.9,265.8,169.5,264.6,169.5,264.6z"/>
<path class="st18" d="M163.4,328.3c0,0,18.9,10.5,23.4,4.6c1-1.3,3.1-1.8,5.7-2c-0.4-1.3-0.6-2.2-0.6-2.2s-14-5.2-27.1-3.9
	C163.9,326.9,163.4,328.3,163.4,328.3z"/>
<path class="st19" d="M172.1,232.1l20.6,17.7c0,0,17.4,12.1,24,7.1c6.6-5-23.6-30.7-23.6-30.7l0,0c6.7,2.7,12.8,6.7,18.1,11.5
	l3.6,3.3c9.4,8.8,11.6,8.8,11.9,21.6c0.1,3.2-1,7.7-1.8,8.5c-3.1,3-5.2,24.8-4.7,27.3s-5.7,24.6-3.7,30.7s-25-3.1-29.6,2.8
	s-23.4-4.6-23.4-4.6s10.5-26.8,13-28.5s5.6-15.5,0-21.9s-6.1-12.5-6.1-12.5s20.4,1.3,16.3-12.5c-2.3-8.1-8.1-14.7-15.7-18.2
	L172.1,232.1z"/>
<path class="st4" d="M199.6,277.2c0,0-7.9,14.9-18.1,18.8c-0.3,0.1-0.6,0.2-1,0.3C169.8,299.6,200.4,281.8,199.6,277.2z"/>
<path class="st1" d="M89,145.3c0,0,3.8,9.7,6.9,13s25.7,36.5,25.7,36.5l1.9,4l1.6,3.4l14.5-1.5l1-5.9l-0.6-0.7
	c-1.5-1.8-5.4-6.5-8.1-8.5c-3.3-2.5-9.9-11-9.9-11s-20.6-21.4-22.2-27.3s-22.2-41-26.8-34.9S89,145.3,89,145.3z"/>
<g>
	<linearGradient id="SVGID_10_" gradientUnits="userSpaceOnUse" x1="105.5543" y1="312.2803" x2="134.9843" y2="312.2803">
		<stop  offset="0" style="stop-color:#28084C"/>
		<stop  offset="4.162306e-02" style="stop-color:#28084C"/>
		<stop  offset="1" style="stop-color:#28084C"/>
	</linearGradient>
	<path class="st20" d="M131.1,302.9c-1.7-0.2-3.5,0.1-5.1,0.7c-3.6,1.8-4.3,6.5-6.3,10c-2.3,4.1-6.8,6.6-11.4,7.5
		c-0.9,0.2-1.8,0.3-2.8,0.4c2.9,0.3,5.9,0.2,8.8-0.4c4.6-0.9,9-3.4,11.4-7.5c2-3.5,2.7-8.2,6.3-10c0.9-0.4,2-0.7,3-0.7L131.1,302.9z
		"/>
	<linearGradient id="SVGID_11_" gradientUnits="userSpaceOnUse" x1="148.6544" y1="236.2134" x2="181.8683" y2="236.2134">
		<stop  offset="0" style="stop-color:#28084C"/>
		<stop  offset="4.162306e-02" style="stop-color:#28084C"/>
		<stop  offset="1" style="stop-color:#28084C"/>
	</linearGradient>
	<path class="st21" d="M166.6,226.2c0-8,5.2-14.8,9.4-21.5s7.8-15.2,4.5-22.4c-2.9-6.1-20.2-14.4-30.3-12.8
		c9.8,1.3,21.9,7.7,24.3,12.8c3.4,7.2-0.2,15.7-4.5,22.4s-9.5,13.6-9.4,21.5c0,10.3-0.7,18-3.5,27.9c-0.8,2.8,7,7.2,5.8,9.9
		c-4.1,9-2.2,19.4-2.8,29.2c0,1.9-0.5,3.8-1.4,5.5c-2,3.3-6.1,4.1-10.1,4.3h3.5c4.7,0,10.2-0.4,12.6-4.3c0.9-1.7,1.4-3.6,1.4-5.5
		c0.6-9.8-1.2-20.2,2.8-29.2c1.2-2.7-6.6-7-5.8-9.9C165.9,244.3,166.7,236.5,166.6,226.2z"/>
</g>
<path class="st4" d="M123.5,198.7l1.6,3.4l14.5-1.5l1-5.9l-0.6-0.7C138.6,194.8,127,200.4,123.5,198.7z"/>
<path class="st4" d="M177.1,237.1c0,0-3.6-5.6-5.6-4.1s-2.8-4.6-4-3.6s-4.6,3.9-6-0.1c-1.1-3.2-13.2-23.1-18.1-31.2
	c-1.3-2.1-2-3.4-2-3.4s-13.8,6.9-17.1,4.6v4.8l2.8,0.3l15,28c0,0,4.7,7.5,4.4,10.1s6,14.1,7.1,14.8s12,13.5,12,13.5
	s5.6,27.5,0.8,35.2s-13.2,13.2-13.2,13.2s-2.5,7.4-2.2,8.2s-2.9,4.1-1.4,5.1s3.6,8.2,3.6,8.2s7.1-11.5,11-13.2s8.8-25.2,8.8-25.2
	s1.4-13.8,1.5-22.7S174.1,237.1,177.1,237.1z"/>
<path class="st15" d="M176.4,237.1c0,0-3.6-5.6-5.6-4.1s-2.8-4.6-4-3.6s-4.6,3.9-6-0.1c-1.1-3.2-13.2-23.1-18.1-31.2l-2-3.4
	c0,0-13.8,6.9-17.1,4.6v4.8l2.8,0.3l15,28c0,0,4.7,7.5,4.4,10.1s6,14.1,7.1,14.8s12,13.5,12,13.5s5.6,27.5,0.8,35.2
	c-2.6,3.8-5.7,7.3-9.2,10.2c-3,2.5-5.1,5.8-6,9.6c-0.2,0.5-0.2,1.1-0.2,1.6c0.4,0.8-2.9,4.1-1.4,5.1s3.6,8.2,3.6,8.2
	s7.1-11.5,11-13.2s8.8-25.2,8.8-25.2s1.4-13.8,1.5-22.7S173.4,237.1,176.4,237.1z"/>
<path class="st4" d="M141.5,353.1c0,0,10.7,2,15,5.1s-16.3-4.8-16.3-4.8L141.5,353.1z"/>
<path class="st4" d="M167.2,380.2c0,0,11.2,9.3,9.2,17.7s-7.2,29.6-7.2,29.6L167.2,380.2z"/>
<path class="st4" d="M69.5,362.3c0,0-15.7,1.7-14.7,3.8s14.7-1.9,14.7-1.9V362.3z"/>
<path class="st4" d="M190.4,439.7c0,0,1,1.3-4.8,0s-1.5-5.2-1.5-5.2L190.4,439.7z"/>
<path class="st4" d="M188.4,457.3c0,0-8,1.3-12.3,0S188.4,457.3,188.4,457.3z"/>
<path class="st4" d="M171.9,526.1c0,0-1.4-1.5-8.4,1.3s-9.8,2.9-11.9,2S171.9,526.1,171.9,526.1z"/>
<path class="st4" d="M179.7,360.1l-9.9,13.8C169.8,374,175.1,361.8,179.7,360.1z"/>
<path class="st4" d="M160.4,233c0,0-0.4,4.6-6.8,6.4s-7.6,3.2-7.6,3.2"/>
<path class="st4" d="M143.7,199.7c0,0-8.5,6-17.3,4.7"/>
<path class="st4" d="M150.2,328.2c0,0,2.5,1.5,8.4-5.2"/>
<path class="st4" d="M211.7,256.3c0.2-1.2-0.6-2.4-1.4-3.4l-1.7-2c-0.3-0.4-0.7-0.8-1.1-1.1c-1-0.8-2.3-1-3.3-1.7"/>
<g>
	<path class="st4" d="M629.6,254.3c-3.7-1-7-3.3-10.8-3.7c-1,0-2-0.3-2.8-0.8c-0.4-0.4-0.8-1-0.9-1.6c2.5-0.1,5.5,0.9,7.8,2
		c1.3,0.5,2.5,1.2,3.6,1.9C627.4,252.5,628.6,254,629.6,254.3z"/>
	<path class="st22" d="M597.9,153.1l-0.7,9.1c-0.1,1.2-2.5,30.8-20,65.3c-15,29.6-44.2,68.1-99.3,89.8c-4.3,1.7-8.8,3.3-13.4,4.8
		l-5.2-16.2c13-4.1,25.4-9.5,37.2-16.3c28.1-16.2,49.9-39.4,65.2-69.2c8.1-15.9,13.8-32.8,17.1-50.3h-62.7v-17H597.9z"/>
	<path class="st23" d="M471.2,317.3c55.1-21.7,84.3-60.2,99.3-89.8c17.5-34.5,19.9-64,20-65.3l0.7-9.1h7l-0.7,9.1
		c-0.1,1.2-2.5,30.8-20,65.3c-15,29.6-44.2,68.1-99.3,89.8c-4.3,1.7-8.8,3.3-13.4,4.8l-0.7-2.1C466.6,319.1,468.9,318.2,471.2,317.3
		z"/>
	<path class="st22" d="M360.9,305.9l-5.2,16.2c-4.6-1.5-9.1-3.1-13.4-4.8c-55.1-21.7-84.3-60.2-99.3-89.8
		c-17.5-34.5-19.9-64-20-65.3l-0.7-9.1h81.7v17h-62.7c3.3,17.5,9.1,34.4,17.1,50.3c15.2,29.8,37.1,52.9,65.1,69.1
		C335.5,296.3,347.9,301.8,360.9,305.9z"/>
	<path class="st23" d="M349.1,317.3c-55.1-21.7-84.3-60.2-99.3-89.8c-17.5-34.5-19.9-64-20-65.3l-0.7-9.1h-7l0.7,9.1
		c0.1,1.2,2.5,30.8,20,65.3c15,29.6,44.2,68.1,99.3,89.8c4.3,1.7,8.8,3.3,13.4,4.8l0.7-2.1C353.8,319.1,351.4,318.2,349.1,317.3z"/>
	<path class="st22" d="M504.5,462.5v91.7H315.8v-91.7l6-8c61.1-21.7,73.5-78.3,76-100.7c0.4-3.1,0.6-6.2,0.6-9.3h23.3
		c0.1,3.1,0.3,6.2,0.6,9.3c2.5,22.4,14.9,79,76,100.7L504.5,462.5z"/>
	<rect x="315.8" y="462.5" class="st4" width="188.7" height="11.5"/>
	<path class="st23" d="M331.8,454.5c61.1-21.7,73.5-78.3,76-100.7c0.4-3.1,0.6-6.2,0.6-9.3h-10c-0.1,3.1-0.3,6.2-0.6,9.3
		c-2.5,22.4-14.9,79-76,100.7l-6,8v91.7h10v-91.7L331.8,454.5z"/>
	<path class="st4" d="M287.2,153.1h16.9v17h-15.4C288.1,164.5,287.6,158.8,287.2,153.1z"/>
	<path class="st4" d="M360.9,305.9l-5.2,16.2c-4.6-1.5-9.1-3.1-13.4-4.8c-7.1-8.6-13.3-17.9-18.7-27.7
		C335.5,296.3,347.9,301.8,360.9,305.9z"/>
	<path class="st4" d="M459.4,305.9c13-4.1,25.4-9.5,37.2-16.3c-5.3,9.8-11.6,19.1-18.7,27.7c-4.3,1.7-8.8,3.3-13.4,4.8L459.4,305.9z
		"/>
	<path class="st4" d="M533.1,153.1c-0.4,5.7-0.9,11.4-1.5,17h-15.4v-17H533.1z"/>
	<path class="st4" d="M422.4,353.8c-8.1,1.6-16.5,1.6-24.6,0c0.4-3.1,0.6-6.2,0.6-9.3h23.3C421.9,347.6,422.1,350.7,422.4,353.8z"/>
	<path class="st22" d="M289.2,125c0.4,126.1,54.4,228,121,228s120.6-101.9,121-228L289.2,125z"/>
	<path class="st23" d="M310.7,125h-21.5c0.4,126.1,54.4,228,121,228c3.6,0,7.2-0.3,10.8-0.9C359.4,341.8,311.1,244.2,310.7,125z"/>
	<rect x="346" y="497.5" class="st2" width="128.3" height="33"/>
	<polygon class="st23" points="352,502 474.3,502 474.3,497.5 346,497.5 346,530.5 352,530.5 	"/>
</g>
</svg>
